<?xml version="1.0" encoding="UTF-8" standalone="no"?>
<!-- Created with Inkscape (http://www.inkscape.org/) -->

<svg
   width="133.66992mm"
   height="129.86967mm"
   viewBox="0 0 133.66992 129.86967"
   version="1.1"
   id="svg1"
   inkscape:version="1.3.2 (091e20e, 2023-11-25, custom)"
   sodipodi:docname="Pizza_sos_czosnkowy.svg"
   xmlns:inkscape="http://www.inkscape.org/namespaces/inkscape"
   xmlns:sodipodi="http://sodipodi.sourceforge.net/DTD/sodipodi-0.dtd"
   xmlns:xlink="http://www.w3.org/1999/xlink"
   xmlns="http://www.w3.org/2000/svg"
   xmlns:svg="http://www.w3.org/2000/svg">
  <sodipodi:namedview
     id="namedview1"
     pagecolor="#ffffff"
     bordercolor="#999999"
     borderopacity="1"
     inkscape:showpageshadow="2"
     inkscape:pageopacity="0"
     inkscape:pagecheckerboard="0"
     inkscape:deskcolor="#d1d1d1"
     inkscape:document-units="mm"
     inkscape:zoom="1.4142136"
     inkscape:cx="209.3036"
     inkscape:cy="168.64496"
     inkscape:window-width="1920"
     inkscape:window-height="1017"
     inkscape:window-x="-8"
     inkscape:window-y="-8"
     inkscape:window-maximized="1"
     inkscape:current-layer="g80">
    <inkscape:page
       x="0"
       y="0"
       width="133.66992"
       height="129.86967"
       id="page3"
       margin="62.94519 41.963459 105.27039 34.366627"
       bleed="0"
       inkscape:export-filename="export\Pizza_sos_ketchup.svg"
       inkscape:export-xdpi="96"
       inkscape:export-ydpi="96" />
  </sodipodi:namedview>
  <defs
     id="defs1">
    <pattern
       inkscape:collect="always"
       xlink:href="#shading27"
       preserveAspectRatio="xMidYMid"
       id="pattern104"
       patternTransform="matrix(1.1,0,0,1.1,205.95316,1751.3205)"
       x="-72"
       y="0" />
    <pattern
       patternUnits="userSpaceOnUse"
       width="565.45114"
       height="25.387499"
       patternTransform="translate(205.95316,1751.3205)"
       preserveAspectRatio="xMidYMid"
       id="shading27"
       style="fill:#e4f3e3"
       inkscape:label="Circle halftones shading"
       inkscape:collect="always"
       inkscape:isstock="true">
      <path
         id="use31"
         style="stroke-width:0.487199;stroke-linecap:square;paint-order:markers fill stroke;stop-color:#000000"
         d="m 760.01231,-187.29796 c 0,0.51981 -0.42139,0.9412 -0.9412,0.9412 -0.51981,0 -0.9412,-0.42139 -0.9412,-0.9412 0,-0.51981 0.42139,-0.9412 0.9412,-0.9412 0.51981,0 0.9412,0.42139 0.9412,0.9412 z m -38.03378,0 c 0,0.89093 -0.72224,1.61318 -1.61318,1.61318 -0.89093,0 -1.61318,-0.72225 -1.61318,-1.61318 0,-0.89093 0.72225,-1.61318 1.61318,-1.61318 0.89094,0 1.61318,0.72225 1.61318,1.61318 z m -38.03377,0 c 0,1.26206 -1.02311,2.28516 -2.28516,2.28516 -1.26206,0 -2.28516,-1.0231 -2.28516,-2.28516 0,-1.26206 1.0231,-2.28516 2.28516,-2.28516 1.26205,0 2.28516,1.0231 2.28516,2.28516 z m -38.03378,0 c 0,1.63318 -1.32396,2.95714 -2.95714,2.95714 -1.63319,0 -2.95714,-1.32396 -2.95714,-2.95714 0,-1.63318 1.32396,-2.95714 2.95714,-2.95714 1.63318,0 2.95714,1.32396 2.95714,2.95714 z m -38.03378,0 c 0,2.00431 -1.62481,3.62912 -3.62912,3.62912 -2.00431,0 -3.62912,-1.62481 -3.62912,-3.62912 0,-2.00431 1.62481,-3.62912 3.62912,-3.62912 2.00431,0 3.62912,1.62481 3.62912,3.62912 z m -38.03378,0 c 0,2.37543 -1.92566,4.3011 -4.3011,4.3011 -2.37543,0 -4.3011,-1.92567 -4.3011,-4.3011 0,-2.37543 1.92567,-4.3011 4.3011,-4.3011 2.37544,0 4.3011,1.92567 4.3011,4.3011 z m -38.03377,0 c 0,2.74656 -2.22653,4.97308 -4.97308,4.97308 -2.74656,0 -4.97308,-2.22652 -4.97308,-4.97308 0,-2.74655 2.22652,-4.97308 4.97308,-4.97308 2.74655,0 4.97308,2.22653 4.97308,4.97308 z m -38.03378,0 c 0,3.11768 -2.52738,5.64506 -5.64506,5.64506 -3.11768,0 -5.64506,-2.52738 -5.64506,-5.64506 0,-3.11768 2.52738,-5.64506 5.64506,-5.64506 3.11768,0 5.64506,2.52738 5.64506,5.64506 z m -38.03378,0 c 0,3.48881 -2.82823,6.31704 -6.31704,6.31704 -3.4888,0 -6.31704,-2.82823 -6.31704,-6.31704 0,-3.4888 2.82824,-6.31704 6.31704,-6.31704 3.48881,0 6.31704,2.82824 6.31704,6.31704 z m -38.03378,0 c 0,3.85993 -3.12908,6.98902 -6.98902,6.98902 -3.85993,0 -6.98902,-3.12909 -6.98902,-6.98902 0,-3.85993 3.1291,-6.98902 6.98902,-6.98902 3.85993,0 6.98902,3.12909 6.98902,6.98902 z m -38.03377,0 c 0,4.23106 -3.42995,7.661 -7.661,7.661 -4.23106,0 -7.661,-3.42994 -7.661,-7.661 0,-4.23105 3.42994,-7.661 7.661,-7.661 4.23105,0 7.661,3.42995 7.661,7.661 z m -38.03378,0 c 0,4.60218 -3.7308,8.33298 -8.33298,8.33298 -4.60218,0 -8.33298,-3.7308 -8.33298,-8.33298 0,-4.60218 3.7308,-8.33298 8.33298,-8.33298 4.60218,0 8.33298,3.7308 8.33298,8.33298 z m -38.03378,0 c 0,4.97331 -4.03165,9.00496 -9.00496,9.00496 -4.9733,0 -9.00496,-4.03165 -9.00496,-9.00496 0,-4.9733 4.03166,-9.00496 9.00496,-9.00496 4.9733,0 9.00496,4.03166 9.00496,9.00496 z m -38.03377,0 c 0,5.34443 -4.33252,9.67694 -9.67694,9.67694 -5.34443,0 -9.67694,-4.33251 -9.67694,-9.67694 0,-5.34442 4.33251,-9.67694 9.67694,-9.67694 5.34442,0 9.67694,4.33252 9.67694,9.67694 z m -38.03378,0 c 0,5.71555 -4.63337,10.34893 -10.34892,10.34893 -5.71555,0 -10.34892,-4.63338 -10.34892,-10.34893 0,-5.71555 4.63337,-10.34892 10.34892,-10.34892 5.71555,0 10.34892,4.63337 10.34892,10.34892 z m -38.03378,0 c 0,6.08668 -4.93422,11.02091 -11.0209,11.02091 -6.08668,0 -11.0209,-4.93423 -11.0209,-11.02091 0,-6.08667 4.93423,-11.0209 11.0209,-11.0209 6.08667,0 11.0209,4.93423 11.0209,11.0209 z m -38.03378,0 c 0,6.4578 -5.23507,11.69289 -11.69288,11.69289 -6.4578,0 -11.69288,-5.23509 -11.69288,-11.69289 0,-6.4578 5.23509,-11.69288 11.69288,-11.69288 6.4578,0 11.69288,5.23508 11.69288,11.69288 z m -38.03377,0 c 0,6.82893 -5.53594,12.36487 -12.36486,12.36487 -6.82893,0 -12.364863,-5.53594 -12.364863,-12.36487 0,-6.82892 5.535937,-12.36486 12.364863,-12.36486 6.82892,0 12.36486,5.53594 12.36486,12.36486 z m -38.033781,0 c 0,7.20005 -5.836789,13.03685 -13.036839,13.03685 -7.200051,0 -13.036841,-5.8368 -13.03684,-13.03685 -1e-6,-7.20004 5.836793,-13.03684 13.03684,-13.03684 7.200046,0 13.036839,5.8368 13.036839,13.03684 z m -38.033777,0 c 0,7.57118 -6.137644,13.70883 -13.70882,13.70883 -7.571175,0 -13.7088198,-6.13765 -13.7088197,-13.70883 -10e-8,-7.57117 6.1376487,-13.70882 13.7088197,-13.70882 7.571171,0 13.70882,6.13765 13.70882,13.70882 z m -38.033777,0 c 0,7.9423 -6.4385,14.38081 -14.3808,14.38081 -7.9423,0 -14.3808,-6.43851 -14.3808,-14.38081 0,-7.94229 6.438505,-14.3808 14.3808,-14.3808 7.942295,0 14.3808,6.43851 14.3808,14.3808 z m -38.033777,0 c 0,8.31343 -6.739356,15.05279 -15.05278,15.05279 -8.313425,0 -15.05278,-6.73936 -15.05278,-15.05279 0,-8.31342 6.73936,-15.05278 15.05278,-15.05278 8.313419,0 15.05278,6.73936 15.05278,15.05278 z m -38.033778,0 c 0,8.68455 -7.040211,15.72477 -15.72476,15.72477 -8.68455,0 -15.72476,-7.04022 -15.72476,-15.72477 0,-8.68454 7.04022,-15.72476 15.72476,-15.72476 8.684544,0 15.72476,7.04022 15.72476,15.72476 z m -38.03378,0 c 0,9.05568 -7.34106,16.39675 -16.39674,16.39675 -9.05567,0 -16.39674,-7.34107 -16.39674,-16.39675 0,-9.05566 7.34108,-16.39674 16.39674,-16.39674 9.05567,0 16.39674,7.34108 16.39674,16.39674 z m -38.03377,0 c 0,9.4268 -7.64193,17.06873 -17.06872,17.06873 -9.4268,0 -17.06872,-7.64193 -17.06872,-17.06873 0,-9.42679 7.64192,-17.06872 17.06872,-17.06872 9.42679,0 17.06872,7.64193 17.06872,17.06872 z m -38.03378,0 c 0,9.79793 -7.94278,17.74071 -17.7407,17.74071 -9.79792,0 -17.7407,-7.94278 -17.7407,-17.74071 0,-9.79791 7.94278,-17.7407 17.7407,-17.7407 9.79791,0 17.7407,7.94279 17.7407,17.7407 z m -38.03378,0 c 0,10.16905 -8.24363,18.41269 -18.41268,18.41269 -10.16905,0 -18.41268,-8.24364 -18.41268,-18.41269 0,-10.16904 8.24364,-18.41268 18.41268,-18.41268 10.16904,0 18.41268,8.24364 18.41268,18.41268 z m -38.03378,0 c 0,10.54017 -8.54448,19.08467 -19.08466,19.08467 -10.54017,0 -19.08466,-8.5445 -19.08466,-19.08467 0,-10.54016 8.5445,-19.08466 19.08466,-19.08466 10.54017,0 19.08466,8.5445 19.08466,19.08466 z m -38.03377,0 c 0,10.9113 -8.84535,19.75665 -19.75664,19.75665 -10.9113,0 -19.75664,-8.84535 -19.75664,-19.75665 0,-10.91129 8.84535,-19.75664 19.75664,-19.75664 10.91129,0 19.75664,8.84535 19.75664,19.75664 z m -38.03378,0 c 0,11.28242 -9.1462,20.42863 -20.42862,20.42863 -11.28242,0 -20.42862,-9.14621 -20.42862,-20.42863 0,-11.28241 9.14621,-20.42862 20.42862,-20.42862 11.28241,0 20.42862,9.14621 20.42862,20.42862 z m -38.03378,0 c 0,11.65355 -9.44705,21.10061 -21.1006,21.10061 -11.65354,0 -21.1006,-9.44706 -21.1006,-21.10061 0,-11.65353 9.44706,-21.1006 21.1006,-21.1006 11.65354,0 21.1006,9.44707 21.1006,21.1006 z m -38.03377,0 c 0,12.02467 -9.74792,21.77259 -21.77258,21.77259 -12.02467,0 -21.77258,-9.74792 -21.77258,-21.77259 0,-12.02466 9.74791,-21.77258 21.77258,-21.77258 12.02466,0 21.77258,9.74792 21.77258,21.77258 z m -38.03378,0 c 0,12.3958 -10.04877,22.44457 -22.44456,22.44457 -12.3958,0 -22.44456,-10.04877 -22.44456,-22.44457 0,-12.39578 10.04877,-22.44456 22.44456,-22.44456 12.39578,0 22.44456,10.04878 22.44456,22.44456 z m -38.03378,0 c 0,12.76692 -10.34962,23.11655 -23.11654,23.11655 -12.76692,0 -23.11654,-10.34963 -23.11654,-23.11655 0,-12.76691 10.34963,-23.11654 23.11654,-23.11654 12.76691,0 23.11654,10.34963 23.11654,23.11654 z m -38.03378,0 c 0,13.13805 -10.65047,23.78853 -23.78852,23.78853 -13.13804,0 -23.78852,-10.65048 -23.78852,-23.78853 0,-13.13803 10.65049,-23.78852 23.78852,-23.78852 13.13804,0 23.78852,10.65049 23.78852,23.78852 z m -38.03377,0 c 0,13.50917 -10.95134,24.46051 -24.4605,24.46051 -13.50917,0 -24.4605,-10.95134 -24.4605,-24.46051 0,-13.50915 10.95134,-24.4605 24.4605,-24.4605 13.50915,0 24.4605,10.95135 24.4605,24.4605 z m -38.03378,0 c 0,13.8803 -11.25219,25.13249 -25.13248,25.13249 -13.88029,0 -25.13248,-11.25219 -25.13248,-25.13249 0,-13.88028 11.2522,-25.13248 25.13248,-25.13248 13.88028,0 25.13248,11.2522 25.13248,25.13248 z m -38.03378,0 c 0,14.25142 -11.55304,25.80447 -25.80446,25.80447 -14.25141,0 -25.80446,-11.55305 -25.80446,-25.80447 0,-14.2514 11.55305,-25.80446 25.80446,-25.80446 14.25141,0 25.80446,11.55306 25.80446,25.80446 z m -38.03378,0 c 0,14.62255 -11.85389,26.47645 -26.47644,26.47645 -14.62254,0 -26.47644,-11.8539 -26.47644,-26.47645 0,-14.62253 11.85391,-26.47644 26.47644,-26.47644 14.62254,0 26.47644,11.85391 26.47644,26.47644 z m -38.03377,0 c 0,14.99367 -12.15476,27.14843 -27.14842,27.14843 -14.99367,0 -27.14842,-12.15476 -27.14842,-27.14843 0,-14.99365 12.15476,-27.14842 27.14842,-27.14842 14.99365,0 27.14842,12.15477 27.14842,27.14842 z m -38.03378,1e-5 c 0,15.36479 -12.45561,27.82041 -27.8204,27.82041 -15.36479,0 -27.8204,-12.45562 -27.8204,-27.82041 0,-15.36478 12.45562,-27.8204 27.8204,-27.8204 15.36478,0 27.8204,12.45562 27.8204,27.8204 z m 1466.15637,36.6408 c 0,0.51981 -0.42139,0.9412 -0.9412,0.9412 -0.51981,0 -0.9412,-0.42139 -0.9412,-0.9412 0,-0.51981 0.42139,-0.9412 0.9412,-0.9412 0.51981,0 0.9412,0.42139 0.9412,0.9412 z m -38.03377,0 c 0,0.89093 -0.72225,1.61318 -1.61318,1.61318 -0.89094,0 -1.61318,-0.72225 -1.61318,-1.61318 0,-0.89093 0.72224,-1.61318 1.61318,-1.61318 0.89093,0 1.61318,0.72225 1.61318,1.61318 z m -38.03378,0 c 0,1.26206 -1.0231,2.28516 -2.28516,2.28516 -1.26206,0 -2.28516,-1.0231 -2.28516,-2.28516 0,-1.26206 1.0231,-2.28516 2.28516,-2.28516 1.26206,0 2.28516,1.0231 2.28516,2.28516 z m -38.03378,0 c 0,1.63318 -1.32395,2.95714 -2.95714,2.95714 -1.63318,0 -2.95714,-1.32396 -2.95714,-2.95714 0,-1.63318 1.32396,-2.95714 2.95714,-2.95714 1.63318,0 2.95714,1.32396 2.95714,2.95714 z m -38.03378,0 c 0,2.00431 -1.62481,3.62912 -3.62912,3.62912 -2.0043,0 -3.62912,-1.62481 -3.62912,-3.62912 0,-2.00431 1.62482,-3.62912 3.62912,-3.62912 2.00431,0 3.62912,1.62481 3.62912,3.62912 z m -38.03377,0 c 0,2.37543 -1.92567,4.3011 -4.3011,4.3011 -2.37543,0 -4.3011,-1.92567 -4.3011,-4.3011 0,-2.37543 1.92567,-4.3011 4.3011,-4.3011 2.37543,0 4.3011,1.92567 4.3011,4.3011 z m -38.03378,0 c 0,2.74656 -2.22652,4.97308 -4.97308,4.97308 -2.74656,0 -4.97308,-2.22652 -4.97308,-4.97308 0,-2.74655 2.22652,-4.97308 4.97308,-4.97308 2.74656,0 4.97308,2.22653 4.97308,4.97308 z m -38.03378,0 c 0,3.11768 -2.52738,5.64506 -5.64506,5.64506 -3.11768,0 -5.64506,-2.52738 -5.64506,-5.64506 0,-3.11768 2.52738,-5.64506 5.64506,-5.64506 3.11768,0 5.64506,2.52738 5.64506,5.64506 z m -38.03377,0 c 0,3.48881 -2.82824,6.31704 -6.31704,6.31704 -3.48881,0 -6.31704,-2.82823 -6.31704,-6.31704 0,-3.4888 2.82823,-6.31704 6.31704,-6.31704 3.4888,0 6.31704,2.82824 6.31704,6.31704 z m -38.03378,0 c 0,3.85993 -3.12909,6.98902 -6.98902,6.98902 -3.85993,0 -6.98902,-3.12909 -6.98902,-6.98902 0,-3.85993 3.12909,-6.98902 6.98902,-6.98902 3.85993,0 6.98902,3.12909 6.98902,6.98902 z m -38.03378,0 c 0,4.23106 -3.42994,7.661 -7.661,7.661 -4.23105,0 -7.661,-3.42994 -7.661,-7.661 0,-4.23105 3.42995,-7.661 7.661,-7.661 4.23105,0 7.661,3.42995 7.661,7.661 z m -38.03378,0 c 0,4.60218 -3.7308,8.33298 -8.33298,8.33298 -4.60218,0 -8.33298,-3.7308 -8.33298,-8.33298 0,-4.60218 3.73081,-8.33298 8.33298,-8.33298 4.60218,0 8.33298,3.7308 8.33298,8.33298 z m -38.03377,0 c 0,4.97331 -4.03166,9.00496 -9.00496,9.00496 -4.97331,0 -9.00496,-4.03165 -9.00496,-9.00496 0,-4.9733 4.03166,-9.00496 9.00496,-9.00496 4.9733,0 9.00496,4.03166 9.00496,9.00496 z m -38.03378,0 c 0,5.34443 -4.33251,9.67694 -9.67694,9.67694 -5.34443,0 -9.67694,-4.33251 -9.67694,-9.67694 0,-5.34442 4.33251,-9.67694 9.67694,-9.67694 5.34442,0 9.67694,4.33252 9.67694,9.67694 z m -38.03378,0 c 0,5.71555 -4.63336,10.34893 -10.34892,10.34893 -5.71555,0 -10.34892,-4.63338 -10.34892,-10.34893 0,-5.71555 4.63337,-10.34892 10.34892,-10.34892 5.71555,0 10.34892,4.63337 10.34892,10.34892 z m -38.03377,0 c 0,6.08668 -4.93423,11.02091 -11.0209,11.02091 -6.08668,0 -11.0209,-4.93423 -11.0209,-11.02091 0,-6.08667 4.93422,-11.0209 11.0209,-11.0209 6.08667,0 11.0209,4.93423 11.0209,11.0209 z m -38.033782,0 c 0,6.4578 -5.235078,11.69289 -11.69288,11.69289 -6.457802,0 -11.69288,-5.23509 -11.69288,-11.69289 0,-6.4578 5.235082,-11.69288 11.69288,-11.69288 6.457798,0 11.69288,5.23508 11.69288,11.69288 z m -38.033777,0 c 0,6.82893 -5.535934,12.36487 -12.36486,12.36487 -6.828927,0 -12.36486,-5.53594 -12.36486,-12.36487 0,-6.82892 5.535937,-12.36486 12.36486,-12.36486 6.828922,0 12.36486,5.53594 12.36486,12.36486 z m -38.033778,0 c 0,7.20005 -5.836789,13.03685 -13.0368396,13.03685 -7.20005105,0 -13.0368401,-5.8368 -13.03684,-13.03685 -1e-7,-7.20004 5.83679345,-13.03684 13.03684,-13.03684 7.2000466,0 13.0368396,5.8368 13.0368396,13.03684 z m -38.033777,0 c 0,7.57118 -6.137644,13.70883 -13.70882,13.70883 -7.571175,0 -13.70882,-6.13765 -13.70882,-13.70883 0,-7.57117 6.137649,-13.70882 13.70882,-13.70882 7.571171,0 13.70882,6.13765 13.70882,13.70882 z m -38.033777,0 c 0,7.9423 -6.4385,14.38081 -14.3808,14.38081 -7.9423,0 -14.3808,-6.43851 -14.3808,-14.38081 0,-7.94229 6.438505,-14.3808 14.3808,-14.3808 7.942295,0 14.3808,6.43851 14.3808,14.3808 z m -38.033777,0 c 0,8.31343 -6.739352,15.05279 -15.052782,15.05279 -8.31342,0 -15.05278,-6.73936 -15.05278,-15.05279 0,-8.31342 6.73936,-15.05278 15.05278,-15.05278 8.31342,0 15.052782,6.73936 15.052782,15.05278 z m -38.033782,0 c 0,8.68455 -7.04021,15.72477 -15.72476,15.72477 -8.68454,0 -15.72476,-7.04022 -15.72476,-15.72477 0,-8.68454 7.04022,-15.72476 15.72476,-15.72476 8.68455,0 15.72476,7.04022 15.72476,15.72476 z m -38.03377,0 c 0,9.05568 -7.34107,16.39675 -16.39674,16.39675 -9.05568,0 -16.39674,-7.34107 -16.39674,-16.39675 0,-9.05566 7.34107,-16.39674 16.39674,-16.39674 9.05566,0 16.39674,7.34108 16.39674,16.39674 z m -38.03378,0 c 0,9.4268 -7.64192,17.06873 -17.06872,17.06873 -9.4268,0 -17.06872,-7.64193 -17.06872,-17.06873 0,-9.42679 7.64193,-17.06872 17.06872,-17.06872 9.42679,0 17.06872,7.64193 17.06872,17.06872 z m -38.03378,0 c 0,9.79793 -7.94277,17.74071 -17.7407,17.74071 -9.79792,0 -17.7407,-7.94278 -17.7407,-17.74071 0,-9.79791 7.94279,-17.7407 17.7407,-17.7407 9.79792,0 17.7407,7.94279 17.7407,17.7407 z m -38.03377,0 c 0,10.16905 -8.24364,18.41269 -18.41268,18.41269 -10.16905,0 -18.41268,-8.24364 -18.41268,-18.41269 0,-10.16904 8.24363,-18.41268 18.41268,-18.41268 10.16904,0 18.41268,8.24364 18.41268,18.41268 z m -38.03378,0 c 0,10.54017 -8.54449,19.08467 -19.08466,19.08467 -10.54017,0 -19.08466,-8.5445 -19.08466,-19.08467 0,-10.54016 8.54449,-19.08466 19.08466,-19.08466 10.54016,0 19.08466,8.5445 19.08466,19.08466 z m -38.03378,0 c 0,10.9113 -8.84534,19.75665 -19.75664,19.75665 -10.9113,0 -19.75664,-8.84535 -19.75664,-19.75665 0,-10.91129 8.84535,-19.75664 19.75664,-19.75664 10.91129,0 19.75664,8.84535 19.75664,19.75664 z m -38.03378,0 c 0,11.28242 -9.1462,20.42863 -20.42862,20.42863 -11.28242,0 -20.42862,-9.14621 -20.42862,-20.42863 0,-11.28241 9.14621,-20.42862 20.42862,-20.42862 11.28242,0 20.42862,9.14621 20.42862,20.42862 z m -38.03377,0 c 0,11.65355 -9.44706,21.10061 -21.1006,21.10061 -11.65355,0 -21.1006,-9.44706 -21.1006,-21.10061 0,-11.65353 9.44706,-21.1006 21.1006,-21.1006 11.65353,0 21.1006,9.44707 21.1006,21.1006 z m -38.03378,0 c 0,12.02467 -9.74791,21.77259 -21.77258,21.77259 -12.02467,0 -21.77258,-9.74792 -21.77258,-21.77259 0,-12.02466 9.74792,-21.77258 21.77258,-21.77258 12.02466,0 21.77258,9.74792 21.77258,21.77258 z m -38.03378,0 c 0,12.3958 -10.04876,22.44457 -22.44456,22.44457 -12.39579,0 -22.44456,-10.04877 -22.44456,-22.44457 0,-12.39578 10.04878,-22.44456 22.44456,-22.44456 12.39579,0 22.44456,10.04878 22.44456,22.44456 z m -38.03378,0 c 0,12.76692 -10.34962,23.11655 -23.11654,23.11655 -12.76691,0 -23.11654,-10.34963 -23.11654,-23.11655 0,-12.76691 10.34963,-23.11654 23.11654,-23.11654 12.76691,0 23.11654,10.34963 23.11654,23.11654 z m -38.03377,0 c 0,13.13805 -10.65048,23.78853 -23.78852,23.78853 -13.13805,0 -23.78852,-10.65048 -23.78852,-23.78853 0,-13.13803 10.65048,-23.78852 23.78852,-23.78852 13.13803,0 23.78852,10.65049 23.78852,23.78852 z m -38.03378,0 c 0,13.50917 -10.95133,24.46051 -24.4605,24.46051 -13.50917,0 -24.4605,-10.95134 -24.4605,-24.46051 0,-13.50915 10.95134,-24.4605 24.4605,-24.4605 13.50916,0 24.4605,10.95135 24.4605,24.4605 z m -38.03378,0 c 0,13.8803 -11.25219,25.13249 -25.13248,25.13249 -13.88029,0 -25.13248,-11.25219 -25.13248,-25.13249 0,-13.88028 11.2522,-25.13248 25.13248,-25.13248 13.88029,0 25.13248,11.2522 25.13248,25.13248 z m -38.03377,0 c 0,14.25142 -11.55305,25.80447 -25.80446,25.80447 -14.25142,0 -25.80446,-11.55305 -25.80446,-25.80447 0,-14.2514 11.55305,-25.80446 25.80446,-25.80446 14.2514,0 25.80446,11.55306 25.80446,25.80446 z m -38.03378,0 c 0,14.62255 -11.8539,26.47645 -26.47644,26.47645 -14.62254,0 -26.47644,-11.8539 -26.47644,-26.47645 0,-14.62253 11.85391,-26.47644 26.47644,-26.47644 14.62253,0 26.47644,11.85391 26.47644,26.47644 z m -38.03378,0 c 0,14.99367 -12.15475,27.14843 -27.14842,27.14843 -14.99366,0 -27.14842,-12.15476 -27.14842,-27.14843 0,-14.99365 12.15477,-27.14842 27.14842,-27.14842 14.99366,0 27.14842,12.15477 27.14842,27.14842 z m -38.03378,1e-5 c 0,15.36479 -12.45561,27.82041 -27.8204,27.82041 -15.36479,0 -27.8204,-12.45562 -27.8204,-27.82041 0,-15.36478 12.45562,-27.8204 27.8204,-27.8204 15.36478,0 27.8204,12.45562 27.8204,27.8204 z m 1576.54581,36.6408 c 0,0.51981 -0.42139,0.9412 -0.9412,0.9412 -0.51981,0 -0.9412,-0.42139 -0.9412,-0.9412 0,-0.51981 0.42139,-0.9412 0.9412,-0.9412 0.51981,0 0.9412,0.42139 0.9412,0.9412 z m -38.03378,0 c 0,0.89093 -0.72224,1.61318 -1.61318,1.61318 -0.89093,0 -1.61318,-0.72225 -1.61318,-1.61318 0,-0.89093 0.72225,-1.61318 1.61318,-1.61318 0.89094,0 1.61318,0.72225 1.61318,1.61318 z m -38.03377,0 c 0,1.26206 -1.02311,2.28516 -2.28516,2.28516 -1.26206,0 -2.28516,-1.0231 -2.28516,-2.28516 0,-1.26206 1.0231,-2.28516 2.28516,-2.28516 1.26205,0 2.28516,1.0231 2.28516,2.28516 z m -38.03378,0 c 0,1.63318 -1.32396,2.95714 -2.95714,2.95714 -1.63319,0 -2.95714,-1.32396 -2.95714,-2.95714 0,-1.63318 1.32396,-2.95714 2.95714,-2.95714 1.63318,0 2.95714,1.32396 2.95714,2.95714 z m -38.03378,0 c 0,2.00431 -1.62481,3.62912 -3.62912,3.62912 -2.00431,0 -3.62912,-1.62481 -3.62912,-3.62912 0,-2.00431 1.62481,-3.62912 3.62912,-3.62912 2.00431,0 3.62912,1.62481 3.62912,3.62912 z m -38.03378,0 c 0,2.37543 -1.92566,4.3011 -4.3011,4.3011 -2.37543,0 -4.3011,-1.92567 -4.3011,-4.3011 0,-2.37543 1.92567,-4.3011 4.3011,-4.3011 2.37544,0 4.3011,1.92567 4.3011,4.3011 z m -38.03377,0 c 0,2.74656 -2.22653,4.97308 -4.97308,4.97308 -2.74656,0 -4.97308,-2.22652 -4.97308,-4.97308 0,-2.74655 2.22652,-4.97308 4.97308,-4.97308 2.74655,0 4.97308,2.22653 4.97308,4.97308 z m -38.03378,0 c 0,3.11768 -2.52738,5.64506 -5.64506,5.64506 -3.11768,0 -5.64506,-2.52738 -5.64506,-5.64506 0,-3.11768 2.52738,-5.64506 5.64506,-5.64506 3.11768,0 5.64506,2.52738 5.64506,5.64506 z m -38.03378,0 c 0,3.48881 -2.82823,6.31704 -6.31704,6.31704 -3.4888,0 -6.31704,-2.82823 -6.31704,-6.31704 0,-3.4888 2.82824,-6.31704 6.31704,-6.31704 3.48881,0 6.31704,2.82824 6.31704,6.31704 z m -38.03378,0 c 0,3.85993 -3.12908,6.98902 -6.98902,6.98902 -3.85993,0 -6.98902,-3.12909 -6.98902,-6.98902 0,-3.85993 3.1291,-6.98902 6.98902,-6.98902 3.85993,0 6.98902,3.12909 6.98902,6.98902 z m -38.03377,0 c 0,4.23106 -3.42995,7.661 -7.661,7.661 -4.23106,0 -7.661,-3.42994 -7.661,-7.661 0,-4.23105 3.42994,-7.661 7.661,-7.661 4.23105,0 7.661,3.42995 7.661,7.661 z m -38.03378,0 c 0,4.60218 -3.7308,8.33298 -8.33298,8.33298 -4.60218,0 -8.33298,-3.7308 -8.33298,-8.33298 0,-4.60218 3.7308,-8.33298 8.33298,-8.33298 4.60218,0 8.33298,3.7308 8.33298,8.33298 z m -38.03378,0 c 0,4.97331 -4.03165,9.00496 -9.00496,9.00496 -4.9733,0 -9.00496,-4.03165 -9.00496,-9.00496 0,-4.9733 4.03166,-9.00496 9.00496,-9.00496 4.9733,0 9.00496,4.03166 9.00496,9.00496 z m -38.03377,0 c 0,5.34443 -4.33252,9.67694 -9.67694,9.67694 -5.34443,0 -9.67694,-4.33251 -9.67694,-9.67694 0,-5.34442 4.33251,-9.67694 9.67694,-9.67694 5.34442,0 9.67694,4.33252 9.67694,9.67694 z m -38.03378,0 c 0,5.71555 -4.63337,10.34893 -10.34892,10.34893 -5.71555,0 -10.34892,-4.63338 -10.34892,-10.34893 0,-5.71555 4.63337,-10.34892 10.34892,-10.34892 5.71555,0 10.34892,4.63337 10.34892,10.34892 z m -38.03378,0 c 0,6.08668 -4.93422,11.02091 -11.0209,11.02091 -6.08668,0 -11.0209,-4.93423 -11.0209,-11.02091 0,-6.08667 4.93423,-11.0209 11.0209,-11.0209 6.08667,0 11.0209,4.93423 11.0209,11.0209 z m -38.03378,0 c 0,6.4578 -5.23507,11.69289 -11.69288,11.69289 -6.4578,0 -11.69288,-5.23509 -11.69288,-11.69289 0,-6.4578 5.23509,-11.69288 11.69288,-11.69288 6.4578,0 11.69288,5.23508 11.69288,11.69288 z m -38.03377,0 c 0,6.82893 -5.53594,12.36487 -12.36486,12.36487 -6.82893,0 -12.364863,-5.53594 -12.364863,-12.36487 0,-6.82892 5.535937,-12.36486 12.364863,-12.36486 6.82892,0 12.36486,5.53594 12.36486,12.36486 z m -38.033781,0 c 0,7.20005 -5.836789,13.03685 -13.036839,13.03685 -7.200051,0 -13.036841,-5.8368 -13.03684,-13.03685 -1e-6,-7.20004 5.836793,-13.03684 13.03684,-13.03684 7.200046,0 13.036839,5.8368 13.036839,13.03684 z m -38.033777,0 c 0,7.57118 -6.137644,13.70883 -13.70882,13.70883 -7.571175,0 -13.7088198,-6.13765 -13.7088197,-13.70883 -10e-8,-7.57117 6.1376487,-13.70882 13.7088197,-13.70882 7.571171,0 13.70882,6.13765 13.70882,13.70882 z m -38.033777,0 c 0,7.9423 -6.4385,14.380808 -14.3808,14.380808 -7.9423,0 -14.3808,-6.438508 -14.3808,-14.380808 0,-7.94229 6.438505,-14.3808 14.3808,-14.3808 7.942295,0 14.3808,6.43851 14.3808,14.3808 z m -38.033777,0 c 0,8.31343 -6.739356,15.052788 -15.05278,15.052788 -8.313425,0 -15.05278,-6.739358 -15.05278,-15.052788 0,-8.31342 6.73936,-15.05278 15.05278,-15.05278 8.313419,0 15.05278,6.73936 15.05278,15.05278 z m -38.033778,0 c 0,8.68455 -7.040211,15.724768 -15.72476,15.724768 -8.68455,0 -15.72476,-7.040218 -15.72476,-15.724768 0,-8.68454 7.04022,-15.72476 15.72476,-15.72476 8.684544,0 15.72476,7.04022 15.72476,15.72476 z m -38.03378,0 c 0,9.05568 -7.34106,16.396749 -16.39674,16.396749 -9.05567,0 -16.39674,-7.341069 -16.39674,-16.396749 0,-9.05566 7.34108,-16.39674 16.39674,-16.39674 9.05567,0 16.39674,7.34108 16.39674,16.39674 z m -38.03377,0 c 0,9.4268 -7.64193,17.068729 -17.06872,17.068729 -9.4268,0 -17.06872,-7.641929 -17.06872,-17.068729 0,-9.42679 7.64192,-17.06872 17.06872,-17.06872 9.42679,0 17.06872,7.64193 17.06872,17.06872 z m -38.03378,0 c 0,9.79793 -7.94278,17.740709 -17.7407,17.740709 -9.79792,0 -17.7407,-7.942779 -17.7407,-17.740709 0,-9.79791 7.94278,-17.7407 17.7407,-17.7407 9.79791,0 17.7407,7.94279 17.7407,17.7407 z m -38.03378,0 c 0,10.16905 -8.24363,18.41269 -18.41268,18.41269 -10.16905,0 -18.41268,-8.24364 -18.41268,-18.41269 0,-10.16904 8.24364,-18.41268 18.41268,-18.41268 10.16904,0 18.41268,8.24364 18.41268,18.41268 z m -38.03378,0 c 0,10.54017 -8.54448,19.08467 -19.08466,19.08467 -10.54017,0 -19.08466,-8.5445 -19.08466,-19.08467 0,-10.54016 8.5445,-19.08466 19.08466,-19.08466 10.54017,0 19.08466,8.5445 19.08466,19.08466 z m -38.03377,0 c 0,10.9113 -8.84535,19.756651 -19.75664,19.756651 -10.9113,0 -19.75664,-8.845351 -19.75664,-19.756651 0,-10.91129 8.84535,-19.75664 19.75664,-19.75664 10.91129,0 19.75664,8.84535 19.75664,19.75664 z m -38.03378,0 c 0,11.28242 -9.1462,20.428631 -20.42862,20.428631 -11.28242,0 -20.42862,-9.146211 -20.42862,-20.428631 0,-11.28241 9.14621,-20.42862 20.42862,-20.42862 11.28241,0 20.42862,9.14621 20.42862,20.42862 z m -38.03378,0 c 0,11.65355 -9.44705,21.100611 -21.1006,21.100611 -11.65354,0 -21.1006,-9.447061 -21.1006,-21.100611 0,-11.65353 9.44706,-21.1006 21.1006,-21.1006 11.65354,0 21.1006,9.44707 21.1006,21.1006 z m -38.03377,0 c 0,12.02467 -9.74792,21.772592 -21.77258,21.772592 -12.02467,0 -21.77258,-9.747922 -21.77258,-21.772592 0,-12.02466 9.74791,-21.77258 21.77258,-21.77258 12.02466,0 21.77258,9.74792 21.77258,21.77258 z m -38.03378,0 c 0,12.3958 -10.04877,22.444572 -22.44456,22.444572 -12.3958,0 -22.44456,-10.048772 -22.44456,-22.444572 0,-12.39578 10.04877,-22.44456 22.44456,-22.44456 12.39578,0 22.44456,10.04878 22.44456,22.44456 z m -38.03378,0 c 0,12.76692 -10.34962,23.116552 -23.11654,23.116552 -12.76692,0 -23.11654,-10.349632 -23.11654,-23.116552 0,-12.76691 10.34963,-23.11654 23.11654,-23.11654 12.76691,0 23.11654,10.34963 23.11654,23.11654 z m -38.03378,0 c 0,13.13805 -10.65047,23.788533 -23.78852,23.788533 -13.13804,0 -23.78852,-10.650483 -23.78852,-23.788533 0,-13.13803 10.65049,-23.78852 23.78852,-23.78852 13.13804,0 23.78852,10.65049 23.78852,23.78852 z m -38.03377,0 c 0,13.50917 -10.95134,24.460513 -24.4605,24.460513 -13.50917,0 -24.4605,-10.951343 -24.4605,-24.460513 0,-13.50915 10.95134,-24.4605 24.4605,-24.4605 13.50915,0 24.4605,10.95135 24.4605,24.4605 z m -38.03378,0 c 0,13.8803 -11.25219,25.132494 -25.13248,25.132494 -13.88029,0 -25.13248,-11.252194 -25.13248,-25.132494 0,-13.88028 11.2522,-25.13248 25.13248,-25.13248 13.88028,0 25.13248,11.2522 25.13248,25.13248 z m -38.03378,0 c 0,14.251421 -11.55304,25.804474 -25.80446,25.804474 -14.25141,0 -25.80446,-11.553053 -25.80446,-25.804474 0,-14.2514 11.55305,-25.80446 25.80446,-25.80446 14.25141,0 25.80446,11.55306 25.80446,25.80446 z m -38.03378,0 c 0,14.622546 -11.85389,26.476454 -26.47644,26.476454 -14.62254,0 -26.47644,-11.853908 -26.47644,-26.476454 0,-14.62253 11.85391,-26.47644 26.47644,-26.47644 14.62254,0 26.47644,11.85391 26.47644,26.47644 z m -38.03377,0 c 0,14.99367 -12.15476,27.148435 -27.14842,27.148435 -14.99367,0 -27.14842,-12.154765 -27.14842,-27.148435 0,-14.99365 12.15476,-27.14842 27.14842,-27.14842 14.99365,0 27.14842,12.15477 27.14842,27.14842 z m -38.03378,1e-5 c 0,15.364785 -12.45561,27.820405 -27.8204,27.820405 -15.36479,0 -27.8204,-12.45562 -27.8204,-27.820405 0,-15.36478 12.45562,-27.8204 27.8204,-27.8204 15.36478,0 27.8204,12.45562 27.8204,27.8204 z"
         sodipodi:nodetypes="ssssssssss"
         transform="matrix(0.3464378,0,0,0.3464378,302.15415,64.887)"
         clip-path="url(#clipPath52)" />
    </pattern>
    <inkscape:path-effect
       effect="bspline"
       id="path-effect83"
       is_visible="true"
       lpeversion="1.3"
       weight="33.333333"
       steps="2"
       helper_size="0"
       apply_no_weight="true"
       apply_with_weight="true"
       only_selected="false"
       uniform="false" />
    <inkscape:path-effect
       effect="bspline"
       id="path-effect81"
       is_visible="true"
       lpeversion="1.3"
       weight="33.333333"
       steps="2"
       helper_size="0"
       apply_no_weight="true"
       apply_with_weight="true"
       only_selected="false"
       uniform="false" />
    <linearGradient
       id="linearGradient15"
       inkscape:swatch="gradient">
      <stop
         style="stop-color:#ee2f3f;stop-opacity:1;"
         offset="0"
         id="stop15" />
      <stop
         style="stop-color:#dc1818;stop-opacity:1;"
         offset="1"
         id="stop16" />
    </linearGradient>
    <inkscape:path-effect
       effect="mirror_symmetry"
       start_point="68.019786,62.270113"
       end_point="68.099724,53.937454"
       center_point="68.059755,58.103784"
       id="path-effect7"
       is_visible="true"
       lpeversion="1.2"
       lpesatellites=""
       mode="free"
       discard_orig_path="false"
       fuse_paths="false"
       oposite_fuse="true"
       split_items="false"
       split_open="false"
       link_styles="true" />
    <inkscape:path-effect
       effect="bspline"
       id="path-effect5"
       is_visible="true"
       lpeversion="1.3"
       weight="33.333333"
       steps="2"
       helper_size="0"
       apply_no_weight="true"
       apply_with_weight="true"
       only_selected="false"
       uniform="false" />
    <linearGradient
       id="linearGradient37"
       inkscape:collect="always">
      <stop
         style="stop-color:#f5fae7;stop-opacity:1;"
         offset="0"
         id="stop38" />
      <stop
         style="stop-color:#f7f8dc;stop-opacity:1;"
         offset="1"
         id="stop39" />
    </linearGradient>
    <inkscape:path-effect
       effect="bspline"
       id="path-effect19"
       is_visible="true"
       lpeversion="1.3"
       weight="33.333333"
       steps="2"
       helper_size="0"
       apply_no_weight="true"
       apply_with_weight="true"
       only_selected="false"
       uniform="false" />
    <clipPath
       clipPathUnits="userSpaceOnUse"
       id="clipPath52">
      <path
         id="path52"
         style="stroke-width:0.1;stroke-linecap:square;paint-order:markers fill stroke;stop-color:#000000"
         d="m -880.82767,-187.29769 h 1640.84 v 73.28155 h -1640.84 z" />
    </clipPath>
    <radialGradient
       inkscape:collect="always"
       xlink:href="#linearGradient37"
       id="radialGradient39"
       cx="68.782193"
       cy="64.212837"
       fx="68.782193"
       fy="64.212837"
       r="54.859843"
       gradientTransform="matrix(1,0,0,0.93356911,0,4.2657161)"
       gradientUnits="userSpaceOnUse" />
    <inkscape:path-effect
       effect="bspline"
       id="path-effect83-4"
       is_visible="true"
       lpeversion="1.3"
       weight="33.333333"
       steps="2"
       helper_size="0"
       apply_no_weight="true"
       apply_with_weight="true"
       only_selected="false"
       uniform="false" />
  </defs>
  <g
     inkscape:groupmode="layer"
     id="g80"
     inkscape:label="sos czosnkowy"
     style="display:inline">
    <path
       style="display:inline;fill:none;fill-opacity:1;stroke:#e9ee40;stroke-width:2;stroke-linecap:round;stroke-linejoin:round;stroke-dasharray:none;stroke-opacity:0.49629602;paint-order:normal"
       d="m 13.930065,56.391556 c 1.265291,-2.081135 2.530587,-4.162277 4.91694,-8.342702 2.386353,-4.180425 5.59532,-9.925795 10.353959,-16.03431 4.758639,-6.108515 9.295448,-10.599203 14.682876,-15.262741 5.387429,-4.663537 7.43265,-5.953926 8.503492,-5.583616 1.070842,0.370311 0.01536,2.611381 -4.204018,8.157032 -4.219375,5.54565 -11.429605,14.028391 -17.424848,22.820184 -5.995243,8.791793 -10.774177,17.89012 -13.378,23.889691 -2.603824,5.999571 -3.028054,8.883344 -2.670074,9.927768 0.357979,1.044423 1.499032,0.243586 5.24177,-5.077312 3.742739,-5.320898 10.26836,-15.442923 13.587858,-20.585687 3.319499,-5.142764 15.372588,-23.108315 20.068277,-29.427015 4.695689,-6.3187 7.937137,-9.798342 8.378232,-9.17484 0.441096,0.623503 -1.909458,5.293731 -6.193201,12.945207 -4.283743,7.651475 -10.520804,18.302921 -15.402961,26.988119 -4.882158,8.685197 -8.443374,15.462147 -11.429552,21.611643 -2.986178,6.149496 -4.567252,9.770507 -5.578851,14.392998 -1.011599,4.622492 -0.743899,7.672257 0.992864,7.094407 1.736763,-0.577849 3.087778,-2.537752 6.307152,-7.820422 3.219375,-5.28267 5.610363,-9.592061 9.567944,-17.142585 3.957582,-7.550523 8.935848,-17.358255 12.968433,-25.263201 4.032586,-7.904947 7.11944,-13.907009 10.27385,-18.940805 3.154411,-5.033797 6.698397,-9.505653 10.081371,-13.77434 -2.051201,6.155645 -3.263426,9.793527 -8.587572,21.732358 C 59.66186,45.460218 52.844761,59.58898 44.382977,78.964246 35.921193,98.339511 34.257019,102.45602 33.471866,107.11126 c -0.785154,4.65523 3.059052,0.57229 6.740198,-4.71325 3.681147,-5.285543 7.166739,-11.71377 10.998704,-18.628296 3.831964,-6.914527 7.958656,-14.2217 12.077352,-21.32153 4.118696,-7.09983 8.218574,-13.973155 12.346615,-21.342006 4.128042,-7.36885 8.035245,-14.762066 11.304715,-19.390664 3.26947,-4.628597 5.587015,-6.005441 6.487037,-5.463674 0.900022,0.541766 0.341161,3.026713 -2.463198,8.72179 -2.804358,5.695076 -7.856786,14.604819 -13.544795,27.821694 -5.688008,13.216874 -11.967327,30.613051 -15.378965,43.510339 -3.411637,12.897287 -3.930581,21.223247 -2.422657,19.634157 1.507924,-1.58908 5.037489,-13.08212 7.091377,-19.535707 2.053889,-6.453586 6.716692,-17.813136 14.751452,-34.48723 8.034761,-16.674093 11.010451,-22.269234 15.58507,-29.275179 4.574619,-7.005944 6.999239,-8.38568 7.762259,-6.883847 0.76301,1.501832 -0.14503,5.88541 -1.51243,10.070099 -1.36741,4.184689 -3.18712,8.148844 -6.227913,14.459885 -3.040796,6.311042 -7.300327,14.963839 -11.323691,23.785004 -4.023364,8.821166 -7.810555,17.810685 -10.417423,25.927795 -2.606867,8.1171 -4.033402,15.36175 -2.966566,15.52022 1.066836,0.15847 4.309168,-6.15072 8.543059,-15.31112 4.233892,-9.160393 8.900244,-19.986768 13.540757,-29.270908 4.640514,-9.284141 9.140767,-16.750285 13.041087,-22.373258 3.90032,-5.622973 7.20846,-9.415645 7.84582,-8.754407 0.63737,0.661238 -1.0144,4.816297 -5.25215,14.133992 -4.23776,9.317696 -5.90229,12.767423 -10.883651,24.625472 -4.981359,11.858049 -7.350186,19.821339 -8.852592,26.180199 -1.502405,6.35886 -2.131738,11.09092 -1.00432,11.37545 1.127418,0.28452 4.011577,-3.8785 6.308008,-9.24586 2.296431,-5.36735 4.005116,-11.939001 6.114315,-17.985099 2.10919,-6.046097 4.6189,-11.566632 7.28043,-16.691042 2.66154,-5.124409 5.47492,-9.852707 7.84892,-12.633689 2.37401,-2.780982 4.30866,-3.614658 5.20438,-3.586839 0.89573,0.02782 0.75253,0.917127 -0.31354,3.514864 -1.06607,2.597737 -3.055,6.903866 -4.93536,12.104081 -1.88037,5.200214 -3.65216,11.294495 -5.47852,16.134196 -1.82637,4.839702 -3.7073,8.424819 -4.27772,10.444664 -0.57042,2.019844 0.16968,2.474414 1.00149,2.100864 0.8318,-0.373554 1.75527,-1.575172 2.5066,-2.781117 0.75132,-1.205945 1.33038,-2.416023 1.68286,-3.458232 0.35249,-1.042209 0.47838,-1.916506 0.60427,-2.790793"
       id="path79"
       inkscape:path-effect="#path-effect81"
       inkscape:original-d="m 13.930065,56.391556 c 1.265292,-2.081135 2.530587,-4.162277 3.795879,-6.243414 3.507414,-6.279713 6.716381,-12.025083 10.209491,-18.279185 6.024168,-5.962928 10.560977,-10.453616 17.607146,-17.428155 3.728688,-2.352536 5.773909,-3.642925 9.31734,-5.8785778 -1.401746,2.9762738 -2.457232,5.2173438 -3.685848,7.8260168 -7.144983,8.538006 -14.39705,16.985186 -21.630594,25.44811 -5.252883,8.852596 -9.758306,18.094585 -14.340868,27.302724 -0.425969,2.89559 -0.850199,5.779363 -1.275299,8.669051 1.141059,-0.800841 2.282112,-1.601678 3.423173,-2.40252 C 23.694901,65.564652 30.220522,55.442627 36.655538,45.46114 36.85952,45.157099 48.912608,27.191548 55.041129,18.056773 58.303986,14.554148 61.545434,11.074506 64.829717,7.5488811 62.427625,12.321511 60.077071,16.991739 57.670439,21.773389 50.004866,31.413587 44.85933,42.704186 39.069424,53.539585 c -3.561215,6.776946 -7.122431,13.553896 -10.683647,20.330844 -2.41114,5.522044 -3.992214,9.143055 -6.352437,14.548487 0.337025,3.839551 0.604726,6.889316 0.907089,10.333986 3.171162,-4.600369 4.522177,-6.560272 7.478232,-10.848589 3.482694,-6.277023 5.873682,-10.586414 8.810524,-15.879622 4.978321,-9.807839 9.956587,-19.615571 14.934893,-29.423381 3.086864,-6.002083 6.173719,-12.004145 9.260579,-18.006219 3.22196,-4.065519 10.148921,-12.806062 10.148921,-12.806062 -2.051201,6.155645 -3.263426,9.793527 -5.211373,15.639308 C 59.66186,45.460218 52.844761,59.58898 45.086037,75.669305 35.921192,98.339511 34.257019,102.45602 28.842477,115.84946 c 3.844235,-4.08297 7.688439,-8.16591 11.532659,-12.24886 3.518075,-6.488133 7.003667,-12.91636 10.519259,-19.399913 4.148337,-7.3455 8.275029,-14.652673 12.412542,-21.979006 4.099877,-6.873328 8.199757,-13.746652 12.299635,-20.619977 4.156205,-7.864376 8.063408,-15.257592 12.202084,-23.0888 2.400264,-1.425988 4.717809,-2.802831 7.076715,-4.204247 -0.558862,2.484949 -1.117724,4.969896 -1.676585,7.454844 -5.049855,8.905205 -10.102283,17.814948 -15.149564,26.715615 -6.328737,17.533082 -12.608056,34.929259 -18.91215,52.394074 -0.519181,8.32976 -1.038124,16.65572 -1.557531,24.98912 3.535257,-11.51157 7.064821,-23.00461 10.601075,-34.519437 0.571522,-1.392346 5.234325,-12.751896 10.869872,-26.481253 10.433974,-19.61883 13.409664,-25.213971 20.125102,-37.8409 2.4338,-1.384961 4.85842,-2.764696 7.29372,-4.150509 -0.90926,4.389479 -1.81731,8.773056 -2.72772,13.168058 -1.8244,3.974375 -3.64411,7.938529 -5.46616,11.907799 -4.259539,8.652815 -8.51907,17.305612 -12.778605,25.958418 -3.787193,8.989525 -7.574384,17.979044 -11.361579,26.968574 -1.42654,7.24468 -2.853075,14.48933 -4.279617,21.73402 3.560214,-6.92775 6.802546,-13.23694 10.343992,-20.12817 4.926336,-11.429563 9.592689,-22.255938 14.389033,-33.383905 4.484682,-7.440314 8.984936,-14.906458 13.477416,-22.359709 3.30816,-3.792697 6.6163,-7.58537 9.92447,-11.378069 -2.03345,5.115176 -3.68521,9.270238 -6.1004,15.345699 -6.06032,12.559927 -7.72485,16.009657 -15.307444,31.724482 -2.693215,7.908138 -5.288956,15.803928 -7.124429,23.950202 -0.629336,4.73208 -1.258668,9.46414 -1.888004,14.19623 2.884171,-4.16304 5.768333,-8.32606 8.652502,-12.4891 1.70869,-6.57167 3.417376,-13.143321 5.126065,-19.714984 2.5097,-5.520534 5.01941,-11.041066 7.52911,-16.561597 2.81337,-4.72829 5.62675,-9.456586 8.44012,-14.184879 1.93464,-0.833673 3.86929,-1.667348 5.80393,-2.50102 -0.14319,0.88931 -0.28638,1.778619 -0.42958,2.667933 -1.98895,4.306157 -3.97788,8.612288 -5.96682,12.918434 -1.77179,6.094283 -3.54358,12.188564 -5.31537,18.282844 -1.88094,3.585121 -3.76187,7.17024 -5.64281,10.755367 0.7401,0.454562 1.4802,0.909132 2.2203,1.363692 0.92351,-1.201663 1.84698,-2.403283 2.77053,-3.604997 0.5791,-1.210176 1.15816,-2.420253 1.73724,-3.630383 0.12589,-0.874288 0.25178,-1.748585 0.37767,-2.622872"
       sodipodi:nodetypes="cccccccccccccccccccccccccccccccccccccccccccccccccccccccccccccccccc"
       transform="matrix(0.42522719,0.82641334,-0.82740463,0.42445797,92.890967,-19.671316)" />
    <path
       style="display:inline;fill:none;fill-opacity:1;stroke:url(#radialGradient39);stroke-width:2;stroke-linecap:round;stroke-linejoin:round;stroke-dasharray:none;stroke-opacity:1;paint-order:normal"
       d="m 13.930065,56.391556 c 1.265291,-2.081135 2.530587,-4.162277 4.91694,-8.342702 2.386353,-4.180425 5.59532,-9.925795 10.353959,-16.03431 4.758639,-6.108515 9.295448,-10.599203 14.682876,-15.262741 5.387429,-4.663537 7.43265,-5.953926 8.503492,-5.583616 1.070842,0.370311 0.01536,2.611381 -4.204018,8.157032 -4.219375,5.54565 -11.429605,14.028391 -17.424848,22.820184 -5.995243,8.791793 -10.774177,17.89012 -13.378,23.889691 -2.603824,5.999571 -3.028054,8.883344 -2.670074,9.927768 0.357979,1.044423 1.499032,0.243586 5.24177,-5.077312 3.742739,-5.320898 10.26836,-15.442923 13.587858,-20.585687 3.319499,-5.142764 15.372588,-23.108315 20.068277,-29.427015 4.695689,-6.3187 7.937137,-9.798342 8.378232,-9.17484 0.441096,0.623503 -1.909458,5.293731 -6.193201,12.945207 -4.283743,7.651475 -10.520804,18.302921 -15.402961,26.988119 -4.882158,8.685197 -8.443374,15.462147 -11.429552,21.611643 -2.986178,6.149496 -4.567252,9.770507 -5.578851,14.392998 -1.011599,4.622492 -0.743899,7.672257 0.992864,7.094407 1.736763,-0.577849 3.087778,-2.537752 6.307152,-7.820422 3.219375,-5.28267 5.610363,-9.592061 9.567944,-17.142585 3.957582,-7.550523 8.935848,-17.358255 12.968433,-25.263201 4.032586,-7.904947 7.11944,-13.907009 10.27385,-18.940805 3.154411,-5.033797 6.698397,-9.505653 10.081371,-13.77434 -2.051201,6.155645 -3.263426,9.793527 -8.587572,21.732358 C 59.66186,45.460218 52.844761,59.58898 44.382977,78.964246 35.921193,98.339511 34.257019,102.45602 33.471866,107.11126 c -0.785154,4.65523 3.059052,0.57229 6.740198,-4.71325 3.681147,-5.285543 7.166739,-11.71377 10.998704,-18.628296 3.831964,-6.914527 7.958656,-14.2217 12.077352,-21.32153 4.118696,-7.09983 8.218574,-13.973155 12.346615,-21.342006 4.128042,-7.36885 8.035245,-14.762066 11.304715,-19.390664 3.26947,-4.628597 5.587015,-6.005441 6.487037,-5.463674 0.900022,0.541766 0.341161,3.026713 -2.463198,8.72179 -2.804358,5.695076 -7.856786,14.604819 -13.544795,27.821694 -5.688008,13.216874 -11.967327,30.613051 -15.378965,43.510339 -3.411637,12.897287 -3.930581,21.223247 -2.422657,19.634157 1.507924,-1.58908 5.037489,-13.08212 7.091377,-19.535707 2.053889,-6.453586 6.716692,-17.813136 14.751452,-34.48723 8.034761,-16.674093 11.010451,-22.269234 15.58507,-29.275179 4.574619,-7.005944 6.999239,-8.38568 7.762259,-6.883847 0.76301,1.501832 -0.14503,5.88541 -1.51243,10.070099 -1.36741,4.184689 -3.18712,8.148844 -6.227913,14.459885 -3.040796,6.311042 -7.300327,14.963839 -11.323691,23.785004 -4.023364,8.821166 -7.810555,17.810685 -10.417423,25.927795 -2.606867,8.1171 -4.033402,15.36175 -2.966566,15.52022 1.066836,0.15847 4.309168,-6.15072 8.543059,-15.31112 4.233892,-9.160393 8.900244,-19.986768 13.540757,-29.270908 4.640514,-9.284141 9.140767,-16.750285 13.041087,-22.373258 3.90032,-5.622973 7.20846,-9.415645 7.84582,-8.754407 0.63737,0.661238 -1.0144,4.816297 -5.25215,14.133992 -4.23776,9.317696 -5.90229,12.767423 -10.883651,24.625472 -4.981359,11.858049 -7.350186,19.821339 -8.852592,26.180199 -1.502405,6.35886 -2.131738,11.09092 -1.00432,11.37545 1.127418,0.28452 4.011577,-3.8785 6.308008,-9.24586 2.296431,-5.36735 4.005116,-11.939001 6.114315,-17.985099 2.10919,-6.046097 4.6189,-11.566632 7.28043,-16.691042 2.66154,-5.124409 5.47492,-9.852707 7.84892,-12.633689 2.37401,-2.780982 4.30866,-3.614658 5.20438,-3.586839 0.89573,0.02782 0.75253,0.917127 -0.31354,3.514864 -1.06607,2.597737 -3.055,6.903866 -4.93536,12.104081 -1.88037,5.200214 -3.65216,11.294495 -5.47852,16.134196 -1.82637,4.839702 -3.7073,8.424819 -4.27772,10.444664 -0.57042,2.019844 0.16968,2.474414 1.00149,2.100864 0.8318,-0.373554 1.75527,-1.575172 2.5066,-2.781117 0.75132,-1.205945 1.33038,-2.416023 1.68286,-3.458232 0.35249,-1.042209 0.47838,-1.916506 0.60427,-2.790793"
       id="path80"
       inkscape:path-effect="#path-effect83"
       inkscape:original-d="m 13.930065,56.391556 c 1.265292,-2.081135 2.530587,-4.162277 3.795879,-6.243414 3.507414,-6.279713 6.716381,-12.025083 10.209491,-18.279185 6.024168,-5.962928 10.560977,-10.453616 17.607146,-17.428155 3.728688,-2.352536 5.773909,-3.642925 9.31734,-5.8785778 -1.401746,2.9762738 -2.457232,5.2173438 -3.685848,7.8260168 -7.144983,8.538006 -14.39705,16.985186 -21.630594,25.44811 -5.252883,8.852596 -9.758306,18.094585 -14.340868,27.302724 -0.425969,2.89559 -0.850199,5.779363 -1.275299,8.669051 1.141059,-0.800841 2.282112,-1.601678 3.423173,-2.40252 C 23.694901,65.564652 30.220522,55.442627 36.655538,45.46114 36.85952,45.157099 48.912608,27.191548 55.041129,18.056773 58.303986,14.554148 61.545434,11.074506 64.829717,7.5488811 62.427625,12.321511 60.077071,16.991739 57.670439,21.773389 50.004866,31.413587 44.85933,42.704186 39.069424,53.539585 c -3.561215,6.776946 -7.122431,13.553896 -10.683647,20.330844 -2.41114,5.522044 -3.992214,9.143055 -6.352437,14.548487 0.337025,3.839551 0.604726,6.889316 0.907089,10.333986 3.171162,-4.600369 4.522177,-6.560272 7.478232,-10.848589 3.482694,-6.277023 5.873682,-10.586414 8.810524,-15.879622 4.978321,-9.807839 9.956587,-19.615571 14.934893,-29.423381 3.086864,-6.002083 6.173719,-12.004145 9.260579,-18.006219 3.22196,-4.065519 10.148921,-12.806062 10.148921,-12.806062 -2.051201,6.155645 -3.263426,9.793527 -5.211373,15.639308 C 59.66186,45.460218 52.844761,59.58898 45.086037,75.669305 35.921192,98.339511 34.257019,102.45602 28.842477,115.84946 c 3.844235,-4.08297 7.688439,-8.16591 11.532659,-12.24886 3.518075,-6.488133 7.003667,-12.91636 10.519259,-19.399913 4.148337,-7.3455 8.275029,-14.652673 12.412542,-21.979006 4.099877,-6.873328 8.199757,-13.746652 12.299635,-20.619977 4.156205,-7.864376 8.063408,-15.257592 12.202084,-23.0888 2.400264,-1.425988 4.717809,-2.802831 7.076715,-4.204247 -0.558862,2.484949 -1.117724,4.969896 -1.676585,7.454844 -5.049855,8.905205 -10.102283,17.814948 -15.149564,26.715615 -6.328737,17.533082 -12.608056,34.929259 -18.91215,52.394074 -0.519181,8.32976 -1.038124,16.65572 -1.557531,24.98912 3.535257,-11.51157 7.064821,-23.00461 10.601075,-34.519437 0.571522,-1.392346 5.234325,-12.751896 10.869872,-26.481253 10.433974,-19.61883 13.409664,-25.213971 20.125102,-37.8409 2.4338,-1.384961 4.85842,-2.764696 7.29372,-4.150509 -0.90926,4.389479 -1.81731,8.773056 -2.72772,13.168058 -1.8244,3.974375 -3.64411,7.938529 -5.46616,11.907799 -4.259539,8.652815 -8.51907,17.305612 -12.778605,25.958418 -3.787193,8.989525 -7.574384,17.979044 -11.361579,26.968574 -1.42654,7.24468 -2.853075,14.48933 -4.279617,21.73402 3.560214,-6.92775 6.802546,-13.23694 10.343992,-20.12817 4.926336,-11.429563 9.592689,-22.255938 14.389033,-33.383905 4.484682,-7.440314 8.984936,-14.906458 13.477416,-22.359709 3.30816,-3.792697 6.6163,-7.58537 9.92447,-11.378069 -2.03345,5.115176 -3.68521,9.270238 -6.1004,15.345699 -6.06032,12.559927 -7.72485,16.009657 -15.307444,31.724482 -2.693215,7.908138 -5.288956,15.803928 -7.124429,23.950202 -0.629336,4.73208 -1.258668,9.46414 -1.888004,14.19623 2.884171,-4.16304 5.768333,-8.32606 8.652502,-12.4891 1.70869,-6.57167 3.417376,-13.143321 5.126065,-19.714984 2.5097,-5.520534 5.01941,-11.041066 7.52911,-16.561597 2.81337,-4.72829 5.62675,-9.456586 8.44012,-14.184879 1.93464,-0.833673 3.86929,-1.667348 5.80393,-2.50102 -0.14319,0.88931 -0.28638,1.778619 -0.42958,2.667933 -1.98895,4.306157 -3.97788,8.612288 -5.96682,12.918434 -1.77179,6.094283 -3.54358,12.188564 -5.31537,18.282844 -1.88094,3.585121 -3.76187,7.17024 -5.64281,10.755367 0.7401,0.454562 1.4802,0.909132 2.2203,1.363692 0.92351,-1.201663 1.84698,-2.403283 2.77053,-3.604997 0.5791,-1.210176 1.15816,-2.420253 1.73724,-3.630383 0.12589,-0.874288 0.25178,-1.748585 0.37767,-2.622872"
       sodipodi:nodetypes="cccccccccccccccccccccccccccccccccccccccccccccccccccccccccccccccccc"
       transform="matrix(0.4252272,0.82641333,-0.82740464,0.42445797,92.75531,-19.897412)" />
    <path
       style="display:inline;fill:none;fill-opacity:1;stroke:url(#pattern104);stroke-width:2;stroke-linecap:round;stroke-linejoin:round;stroke-dasharray:none;stroke-opacity:1;paint-order:normal"
       d="m 13.930065,56.391556 c 1.265291,-2.081135 2.530587,-4.162277 4.91694,-8.342702 2.386353,-4.180425 5.59532,-9.925795 10.353959,-16.03431 4.758639,-6.108515 9.295448,-10.599203 14.682876,-15.262741 5.387429,-4.663537 7.43265,-5.953926 8.503492,-5.583616 1.070842,0.370311 0.01536,2.611381 -4.204018,8.157032 -4.219375,5.54565 -11.429605,14.028391 -17.424848,22.820184 -5.995243,8.791793 -10.774177,17.89012 -13.378,23.889691 -2.603824,5.999571 -3.028054,8.883344 -2.670074,9.927768 0.357979,1.044423 1.499032,0.243586 5.24177,-5.077312 3.742739,-5.320898 10.26836,-15.442923 13.587858,-20.585687 3.319499,-5.142764 15.372588,-23.108315 20.068277,-29.427015 4.695689,-6.3187 7.937137,-9.798342 8.378232,-9.17484 0.441096,0.623503 -1.909458,5.293731 -6.193201,12.945207 -4.283743,7.651475 -10.520804,18.302921 -15.402961,26.988119 -4.882158,8.685197 -8.443374,15.462147 -11.429552,21.611643 -2.986178,6.149496 -4.567252,9.770507 -5.578851,14.392998 -1.011599,4.622492 -0.743899,7.672257 0.992864,7.094407 1.736763,-0.577849 3.087778,-2.537752 6.307152,-7.820422 3.219375,-5.28267 5.610363,-9.592061 9.567944,-17.142585 3.957582,-7.550523 8.935848,-17.358255 12.968433,-25.263201 4.032586,-7.904947 7.11944,-13.907009 10.27385,-18.940805 3.154411,-5.033797 6.698397,-9.505653 10.081371,-13.77434 -2.051201,6.155645 -3.263426,9.793527 -8.587572,21.732358 C 59.66186,45.460218 52.844761,59.58898 44.382977,78.964246 35.921193,98.339511 34.257019,102.45602 33.471866,107.11126 c -0.785154,4.65523 3.059052,0.57229 6.740198,-4.71325 3.681147,-5.285543 7.166739,-11.71377 10.998704,-18.628296 3.831964,-6.914527 7.958656,-14.2217 12.077352,-21.32153 4.118696,-7.09983 8.218574,-13.973155 12.346615,-21.342006 4.128042,-7.36885 8.035245,-14.762066 11.304715,-19.390664 3.26947,-4.628597 5.587015,-6.005441 6.487037,-5.463674 0.900022,0.541766 0.341161,3.026713 -2.463198,8.72179 -2.804358,5.695076 -7.856786,14.604819 -13.544795,27.821694 -5.688008,13.216874 -11.967327,30.613051 -15.378965,43.510339 -3.411637,12.897287 -3.930581,21.223247 -2.422657,19.634157 1.507924,-1.58908 5.037489,-13.08212 7.091377,-19.535707 2.053889,-6.453586 6.716692,-17.813136 14.751452,-34.48723 8.034761,-16.674093 11.010451,-22.269234 15.58507,-29.275179 4.574619,-7.005944 6.999239,-8.38568 7.762259,-6.883847 0.76301,1.501832 -0.14503,5.88541 -1.51243,10.070099 -1.36741,4.184689 -3.18712,8.148844 -6.227913,14.459885 -3.040796,6.311042 -7.300327,14.963839 -11.323691,23.785004 -4.023364,8.821166 -7.810555,17.810685 -10.417423,25.927795 -2.606867,8.1171 -4.033402,15.36175 -2.966566,15.52022 1.066836,0.15847 4.309168,-6.15072 8.543059,-15.31112 4.233892,-9.160393 8.900244,-19.986768 13.540757,-29.270908 4.640514,-9.284141 9.140767,-16.750285 13.041087,-22.373258 3.90032,-5.622973 7.20846,-9.415645 7.84582,-8.754407 0.63737,0.661238 -1.0144,4.816297 -5.25215,14.133992 -4.23776,9.317696 -5.90229,12.767423 -10.883651,24.625472 -4.981359,11.858049 -7.350186,19.821339 -8.852592,26.180199 -1.502405,6.35886 -2.131738,11.09092 -1.00432,11.37545 1.127418,0.28452 4.011577,-3.8785 6.308008,-9.24586 2.296431,-5.36735 4.005116,-11.939001 6.114315,-17.985099 2.10919,-6.046097 4.6189,-11.566632 7.28043,-16.691042 2.66154,-5.124409 5.47492,-9.852707 7.84892,-12.633689 2.37401,-2.780982 4.30866,-3.614658 5.20438,-3.586839 0.89573,0.02782 0.75253,0.917127 -0.31354,3.514864 -1.06607,2.597737 -3.055,6.903866 -4.93536,12.104081 -1.88037,5.200214 -3.65216,11.294495 -5.47852,16.134196 -1.82637,4.839702 -3.7073,8.424819 -4.27772,10.444664 -0.57042,2.019844 0.16968,2.474414 1.00149,2.100864 0.8318,-0.373554 1.75527,-1.575172 2.5066,-2.781117 0.75132,-1.205945 1.33038,-2.416023 1.68286,-3.458232 0.35249,-1.042209 0.47838,-1.916506 0.60427,-2.790793"
       id="path80-7"
       inkscape:path-effect="#path-effect83-4"
       inkscape:original-d="m 13.930065,56.391556 c 1.265292,-2.081135 2.530587,-4.162277 3.795879,-6.243414 3.507414,-6.279713 6.716381,-12.025083 10.209491,-18.279185 6.024168,-5.962928 10.560977,-10.453616 17.607146,-17.428155 3.728688,-2.352536 5.773909,-3.642925 9.31734,-5.8785778 -1.401746,2.9762738 -2.457232,5.2173438 -3.685848,7.8260168 -7.144983,8.538006 -14.39705,16.985186 -21.630594,25.44811 -5.252883,8.852596 -9.758306,18.094585 -14.340868,27.302724 -0.425969,2.89559 -0.850199,5.779363 -1.275299,8.669051 1.141059,-0.800841 2.282112,-1.601678 3.423173,-2.40252 C 23.694901,65.564652 30.220522,55.442627 36.655538,45.46114 36.85952,45.157099 48.912608,27.191548 55.041129,18.056773 58.303986,14.554148 61.545434,11.074506 64.829717,7.5488811 62.427625,12.321511 60.077071,16.991739 57.670439,21.773389 50.004866,31.413587 44.85933,42.704186 39.069424,53.539585 c -3.561215,6.776946 -7.122431,13.553896 -10.683647,20.330844 -2.41114,5.522044 -3.992214,9.143055 -6.352437,14.548487 0.337025,3.839551 0.604726,6.889316 0.907089,10.333986 3.171162,-4.600369 4.522177,-6.560272 7.478232,-10.848589 3.482694,-6.277023 5.873682,-10.586414 8.810524,-15.879622 4.978321,-9.807839 9.956587,-19.615571 14.934893,-29.423381 3.086864,-6.002083 6.173719,-12.004145 9.260579,-18.006219 3.22196,-4.065519 10.148921,-12.806062 10.148921,-12.806062 -2.051201,6.155645 -3.263426,9.793527 -5.211373,15.639308 C 59.66186,45.460218 52.844761,59.58898 45.086037,75.669305 35.921192,98.339511 34.257019,102.45602 28.842477,115.84946 c 3.844235,-4.08297 7.688439,-8.16591 11.532659,-12.24886 3.518075,-6.488133 7.003667,-12.91636 10.519259,-19.399913 4.148337,-7.3455 8.275029,-14.652673 12.412542,-21.979006 4.099877,-6.873328 8.199757,-13.746652 12.299635,-20.619977 4.156205,-7.864376 8.063408,-15.257592 12.202084,-23.0888 2.400264,-1.425988 4.717809,-2.802831 7.076715,-4.204247 -0.558862,2.484949 -1.117724,4.969896 -1.676585,7.454844 -5.049855,8.905205 -10.102283,17.814948 -15.149564,26.715615 -6.328737,17.533082 -12.608056,34.929259 -18.91215,52.394074 -0.519181,8.32976 -1.038124,16.65572 -1.557531,24.98912 3.535257,-11.51157 7.064821,-23.00461 10.601075,-34.519437 0.571522,-1.392346 5.234325,-12.751896 10.869872,-26.481253 10.433974,-19.61883 13.409664,-25.213971 20.125102,-37.8409 2.4338,-1.384961 4.85842,-2.764696 7.29372,-4.150509 -0.90926,4.389479 -1.81731,8.773056 -2.72772,13.168058 -1.8244,3.974375 -3.64411,7.938529 -5.46616,11.907799 -4.259539,8.652815 -8.51907,17.305612 -12.778605,25.958418 -3.787193,8.989525 -7.574384,17.979044 -11.361579,26.968574 -1.42654,7.24468 -2.853075,14.48933 -4.279617,21.73402 3.560214,-6.92775 6.802546,-13.23694 10.343992,-20.12817 4.926336,-11.429563 9.592689,-22.255938 14.389033,-33.383905 4.484682,-7.440314 8.984936,-14.906458 13.477416,-22.359709 3.30816,-3.792697 6.6163,-7.58537 9.92447,-11.378069 -2.03345,5.115176 -3.68521,9.270238 -6.1004,15.345699 -6.06032,12.559927 -7.72485,16.009657 -15.307444,31.724482 -2.693215,7.908138 -5.288956,15.803928 -7.124429,23.950202 -0.629336,4.73208 -1.258668,9.46414 -1.888004,14.19623 2.884171,-4.16304 5.768333,-8.32606 8.652502,-12.4891 1.70869,-6.57167 3.417376,-13.143321 5.126065,-19.714984 2.5097,-5.520534 5.01941,-11.041066 7.52911,-16.561597 2.81337,-4.72829 5.62675,-9.456586 8.44012,-14.184879 1.93464,-0.833673 3.86929,-1.667348 5.80393,-2.50102 -0.14319,0.88931 -0.28638,1.778619 -0.42958,2.667933 -1.98895,4.306157 -3.97788,8.612288 -5.96682,12.918434 -1.77179,6.094283 -3.54358,12.188564 -5.31537,18.282844 -1.88094,3.585121 -3.76187,7.17024 -5.64281,10.755367 0.7401,0.454562 1.4802,0.909132 2.2203,1.363692 0.92351,-1.201663 1.84698,-2.403283 2.77053,-3.604997 0.5791,-1.210176 1.15816,-2.420253 1.73724,-3.630383 0.12589,-0.874288 0.25178,-1.748585 0.37767,-2.622872"
       sodipodi:nodetypes="cccccccccccccccccccccccccccccccccccccccccccccccccccccccccccccccccc"
       transform="matrix(0.4252272,0.82641333,-0.82740464,0.42445797,92.591484,-20.058877)" />
  </g>
</svg>
