<?xml version="1.0" encoding="UTF-8" standalone="no"?>
<!-- Created with Inkscape (http://www.inkscape.org/) -->

<svg
   width="133.66992mm"
   height="129.86967mm"
   viewBox="0 0 133.66992 129.86967"
   version="1.1"
   id="svg1"
   inkscape:version="1.3.2 (091e20e, 2023-11-25, custom)"
   sodipodi:docname="Pizza_skladnik_kebab.svg"
   xmlns:inkscape="http://www.inkscape.org/namespaces/inkscape"
   xmlns:sodipodi="http://sodipodi.sourceforge.net/DTD/sodipodi-0.dtd"
   xmlns:xlink="http://www.w3.org/1999/xlink"
   xmlns="http://www.w3.org/2000/svg"
   xmlns:svg="http://www.w3.org/2000/svg">
  <sodipodi:namedview
     id="namedview1"
     pagecolor="#ffffff"
     bordercolor="#999999"
     borderopacity="1"
     inkscape:showpageshadow="2"
     inkscape:pageopacity="0"
     inkscape:pagecheckerboard="0"
     inkscape:deskcolor="#d1d1d1"
     inkscape:document-units="mm"
     inkscape:zoom="2.0000001"
     inkscape:cx="275.49999"
     inkscape:cy="238.24999"
     inkscape:window-width="1920"
     inkscape:window-height="1017"
     inkscape:window-x="-8"
     inkscape:window-y="-8"
     inkscape:window-maximized="1"
     inkscape:current-layer="layer31">
    <inkscape:page
       x="0"
       y="0"
       width="133.66992"
       height="129.86967"
       id="page3"
       margin="62.94519 41.963459 105.27039 34.366627"
       bleed="0"
       inkscape:export-filename="export\Pizza_skladnik_ananas.svg"
       inkscape:export-xdpi="96"
       inkscape:export-ydpi="96" />
  </sodipodi:namedview>
  <defs
     id="defs1">
    <linearGradient
       id="swatch1"
       inkscape:swatch="solid">
      <stop
         style="stop-color:#fdd186;stop-opacity:1;"
         offset="0"
         id="stop1" />
    </linearGradient>
    <inkscape:path-effect
       effect="mirror_symmetry"
       start_point="68.019786,62.270113"
       end_point="68.099724,53.937454"
       center_point="68.059755,58.103784"
       id="path-effect127"
       is_visible="true"
       lpeversion="1.2"
       lpesatellites=""
       mode="free"
       discard_orig_path="false"
       fuse_paths="false"
       oposite_fuse="true"
       split_items="false"
       split_open="false"
       link_styles="true" />
    <inkscape:path-effect
       effect="mirror_symmetry"
       start_point="68.019786,62.270113"
       end_point="68.099724,53.937454"
       center_point="68.059755,58.103784"
       id="path-effect46"
       is_visible="true"
       lpeversion="1.2"
       lpesatellites=""
       mode="free"
       discard_orig_path="false"
       fuse_paths="false"
       oposite_fuse="true"
       split_items="false"
       split_open="false"
       link_styles="true" />
    <inkscape:path-effect
       effect="mirror_symmetry"
       start_point="68.019786,62.270113"
       end_point="68.099724,53.937454"
       center_point="68.059755,58.103784"
       id="path-effect43"
       is_visible="true"
       lpeversion="1.2"
       lpesatellites=""
       mode="free"
       discard_orig_path="false"
       fuse_paths="false"
       oposite_fuse="true"
       split_items="false"
       split_open="false"
       link_styles="true" />
    <inkscape:path-effect
       effect="mirror_symmetry"
       start_point="68.019786,62.270113"
       end_point="68.099724,53.937454"
       center_point="68.059755,58.103784"
       id="path-effect40"
       is_visible="true"
       lpeversion="1.2"
       lpesatellites=""
       mode="free"
       discard_orig_path="false"
       fuse_paths="false"
       oposite_fuse="true"
       split_items="false"
       split_open="false"
       link_styles="true" />
    <inkscape:path-effect
       effect="mirror_symmetry"
       start_point="68.019786,62.270113"
       end_point="68.099724,53.937454"
       center_point="68.059755,58.103784"
       id="path-effect37"
       is_visible="true"
       lpeversion="1.2"
       lpesatellites=""
       mode="free"
       discard_orig_path="false"
       fuse_paths="false"
       oposite_fuse="true"
       split_items="false"
       split_open="false"
       link_styles="true" />
    <inkscape:path-effect
       effect="mirror_symmetry"
       start_point="68.019786,62.270113"
       end_point="68.099724,53.937454"
       center_point="68.059755,58.103784"
       id="path-effect28"
       is_visible="true"
       lpeversion="1.2"
       lpesatellites=""
       mode="free"
       discard_orig_path="false"
       fuse_paths="false"
       oposite_fuse="true"
       split_items="false"
       split_open="false"
       link_styles="true" />
    <inkscape:path-effect
       effect="mirror_symmetry"
       start_point="68.019786,62.270113"
       end_point="68.099724,53.937454"
       center_point="68.059755,58.103784"
       id="path-effect21"
       is_visible="true"
       lpeversion="1.2"
       lpesatellites=""
       mode="free"
       discard_orig_path="false"
       fuse_paths="false"
       oposite_fuse="true"
       split_items="false"
       split_open="false"
       link_styles="true" />
    <inkscape:path-effect
       effect="mirror_symmetry"
       start_point="68.019786,62.270113"
       end_point="68.099724,53.937454"
       center_point="68.059755,58.103784"
       id="path-effect17"
       is_visible="true"
       lpeversion="1.2"
       lpesatellites=""
       mode="free"
       discard_orig_path="false"
       fuse_paths="false"
       oposite_fuse="true"
       split_items="false"
       split_open="false"
       link_styles="true" />
    <inkscape:path-effect
       effect="mirror_symmetry"
       start_point="68.019786,62.270113"
       end_point="68.099724,53.937454"
       center_point="68.059755,58.103784"
       id="path-effect13"
       is_visible="true"
       lpeversion="1.2"
       lpesatellites=""
       mode="free"
       discard_orig_path="false"
       fuse_paths="false"
       oposite_fuse="true"
       split_items="false"
       split_open="false"
       link_styles="true" />
    <inkscape:path-effect
       effect="bspline"
       id="path-effect115"
       is_visible="true"
       lpeversion="1.3"
       weight="33.333333"
       steps="2"
       helper_size="0"
       apply_no_weight="true"
       apply_with_weight="true"
       only_selected="false"
       uniform="false" />
    <inkscape:path-effect
       effect="bspline"
       id="path-effect113"
       is_visible="true"
       lpeversion="1.3"
       weight="33.333333"
       steps="2"
       helper_size="0"
       apply_no_weight="true"
       apply_with_weight="true"
       only_selected="false"
       uniform="false" />
    <inkscape:path-effect
       effect="bspline"
       id="path-effect109"
       is_visible="true"
       lpeversion="1.3"
       weight="33.333333"
       steps="2"
       helper_size="0"
       apply_no_weight="true"
       apply_with_weight="true"
       only_selected="false"
       uniform="false" />
    <inkscape:path-effect
       effect="bspline"
       id="path-effect107"
       is_visible="true"
       lpeversion="1.3"
       weight="33.333333"
       steps="2"
       helper_size="0"
       apply_no_weight="true"
       apply_with_weight="true"
       only_selected="false"
       uniform="false" />
    <inkscape:path-effect
       effect="bspline"
       id="path-effect83"
       is_visible="true"
       lpeversion="1.3"
       weight="33.333333"
       steps="2"
       helper_size="0"
       apply_no_weight="true"
       apply_with_weight="true"
       only_selected="false"
       uniform="false" />
    <inkscape:path-effect
       effect="bspline"
       id="path-effect81"
       is_visible="true"
       lpeversion="1.3"
       weight="33.333333"
       steps="2"
       helper_size="0"
       apply_no_weight="true"
       apply_with_weight="true"
       only_selected="false"
       uniform="false" />
    <pattern
       inkscape:collect="always"
       xlink:href="#shading22"
       preserveAspectRatio="xMidYMid"
       id="pattern79"
       patternTransform="matrix(0.08,0,0,0.08,207.69862,1321.2266)"
       x="0"
       y="0" />
    <pattern
       patternUnits="userSpaceOnUse"
       width="465.2903"
       height="19.945067"
       patternTransform="translate(207.69862,1321.2266)"
       preserveAspectRatio="xMidYMid"
       id="shading22"
       style="fill:#4b2d0b"
       inkscape:label="Vertical rough lines shading"
       inkscape:collect="always"
       inkscape:isstock="true">
      <path
         style="fill-rule:nonzero;stroke:none;stroke-width:0.0332211;stroke-linecap:square;paint-order:markers fill stroke;stop-color:#000000"
         d="m 0,8.6488372 v 3.1569998 3.382 c 0.6122,0 1.2325,-0.585 1.8607,-0.585 0.6283,-0.586 1.2645,0 1.9086,0 0.6439,0 1.2956,-0.08 1.9551,-0.08 0.6595,-0.08 1.3267,1.337 2.0015,1.336 0.6755,1.338 1.3587,-0.151 2.0494,-0.153 0.6902,-0.15 1.3879,0 2.093,0 0.7051,0.01 1.4177,-0.346 2.1377,-0.349 0.7195,-0.344 1.4463,-0.02 2.1804,-0.02 0.7343,-0.01 1.4759,0.164 2.2245,0.161 0.7489,0.167 1.5049,0.626 2.268,0.621 0.7637,0.63 1.5345,-0.209 2.3122,-0.214 0.7764,-0.206 1.5597,0.101 2.3498,0.09 0.7907,0.107 1.5881,0.126 2.3921,0.119 0.8042,0.131 1.615,0.186 2.4325,0.179 0.8175,0.192 1.6417,-0.209 2.4723,-0.217 0.8298,-0.203 1.666,0.03 2.5086,0.02 0.8431,0.04 1.6925,0.204 2.5482,0.196 0.8562,0.212 1.7186,-0.453 2.5872,-0.462 0.8669,-0.445 1.7399,-0.38 2.6189,-0.39 0.8792,-0.37 1.7644,-1.106 2.6555,-1.117 0.8891,-1.097 1.784,1.133 2.6848,1.123 0.907,1.143 1.8199,-0.503 2.7386,-0.514 0.914,-0.492 1.8337,0.318 2.759,0.307 0.9277,0.328 1.8611,0.375 2.8,0.363 0.9391,0.387 1.8837,-0.626 2.8338,-0.638 0.9469,-0.615 1.8991,0.951 2.8567,0.938 0.9626,0.964 1.9306,0.525 2.9039,0.511 0.9719,0.538 1.949,-0.08 2.9312,-0.09 0.9803,-0.06 1.9656,0.307 2.9559,0.293 0.9916,0.32 1.9883,0.32 2.9899,0.305 1.0016,0.335 2.0082,0.345 3.0195,0.33 1.0115,0.36 2.0278,0.207 3.0488,0.191 1.0205,0.223 2.0456,-0.342 3.0754,-0.359 1.0275,-0.326 2.0595,0.02 3.096,0 1.038,0.04 2.0804,0.141 3.1271,0.123 1.0473,0.157 2.0989,-0.09 3.1548,-0.111 1.0549,-0.08 2.114,-0.07 3.1772,-0.09 1.0633,-0.06 2.1307,0.678 3.2022,0.658 1.0749,0.697 2.154,-0.03 3.2369,-0.05 1.0798,0 2.1634,0.134 3.2509,0.112 1.0883,0.154 2.1804,-0.495 3.2761,-0.517 1.0927,-0.473 2.189,-1.265 3.289,-1.287 1.0959,-1.244 2.1954,1.601 3.2983,1.578 1.1175,1.624 2.2386,0.322 3.3631,0.298 1.1182,0.345 2.2397,0.08 3.3646,0.05 1.1236,0.101 2.2505,0.153 3.3806,0.128 1.1305,0.177 2.2642,0.08 3.401,0.06 1.1365,0.107 2.276,0.364 3.4185,0.338 1.1441,0.39 2.2913,0.7 3.4413,0.673 1.1522,0.726 2.3073,0.124 3.4652,0.1 1.1546,0.152 2.3119,0.126 3.4719,0.1 1.1601,0.153 2.3228,-0.02 3.488,-0.05 1.1644,0 2.3312,-0.05 3.5006,-0.08 1.1691,-0.01 2.3407,0.173 3.5146,0.141 1.1754,0.203 2.3531,0.565 3.5331,0.532 1.1828,0.597 2.3679,-0.707 3.5551,-0.741 1.1782,-0.675 2.3585,-0.112 3.5408,-0.147 1.1864,-0.08 2.3748,-0.965 3.5651,-1.001 1.1838,-0.931 2.3695,-0.02 3.557,-0.06 1.1943,0.01 2.3904,0.251 3.5882,0.214 1.1999,0.286 2.4014,-0.01 3.6046,-0.05 1.2012,0.02 2.404,-0.137 3.6083,-0.174 1.2033,-0.1 2.4081,-0.571 3.6142,-0.609 1.2027,-0.533 2.4067,0.362 3.612,0.323 1.2126,0.401 2.4265,-0.362 3.6415,-0.402 1.2093,-0.323 2.4198,-1.012 3.6313,-1.052 1.2061,-0.973 2.4132,0.91 3.6213,0.87 1.2236,0.949 2.4481,-0.419 3.6736,-0.459 1.2147,-0.379 2.4302,0.613 3.6465,0.573 1.2248,0.654 2.4503,0.205 3.6765,0.163 1.223,0.246 2.4466,-0.449 3.6707,-0.491 1.2187,-0.407 2.4378,0.797 3.6573,0.755 1.2303,0.838 2.4609,0.259 3.6919,0.216 1.2267,0.302 2.4536,-0.09 3.6808,-0.139 1.2241,-0.05 2.4485,-0.236 3.6729,-0.281 1.2231,-0.193 2.4463,-0.698 3.6695,-0.743 1.2187,-0.654 2.4375,-0.208 3.6562,-0.254 1.2229,-0.163 2.4457,-0.296 3.6684,-0.342 1.2217,-0.251 2.4432,-0.64 3.6644,-0.686 1.2179,-0.594 2.4354,-0.04 3.6526,-0.08 1.2226,0 2.4448,0.04 3.6664,0 1.2224,0.09 2.4443,-0.71 3.6656,-0.756 1.2143,-0.664 2.4279,0.293 3.6408,0.248 1.2221,0.338 2.4434,0.366 3.6638,0.321 1.2213,0.412 2.4417,-0.152 3.6612,-0.198 1.2147,-0.105 2.4285,-0.781 3.6412,-0.827 1.2069,-0.736 2.4126,0.318 3.6172,0.273 1.2147,0.363 2.4282,0.93 3.6404,0.885 1.2181,0.975 2.435,-0.173 3.6504,-0.219 1.2054,-0.126 2.4095,-1.226 3.612,-1.272 1.1925,-1.18 2.3834,0 3.5728,-0.05 1.2007,0.05 2.3998,0.875 3.5972,0.829 1.2057,0.92 2.4097,0.227 3.6118,0.181 1.1965,0.273 2.3911,0.957 3.5838,0.911 1.2002,1.002 2.3985,-0.143 3.5947,-0.19 1.1859,-0.1 2.3697,-0.83 3.5515,-0.878 1.1744,-0.783 2.3468,0.7 3.5169,0.652 1.1857,0.747 2.369,0.408 3.55,0.359 1.1786,0.455 2.3549,0.104 3.5287,0.05 1.1709,0.152 2.3394,0.105 3.5053,0.05 1.1661,0.154 2.3297,-0.07 3.4905,-0.122 1.159,-0.02 2.3153,-0.1 3.4688,-0.153 1.1531,-0.05 2.3034,-0.06 3.4508,-0.116 1.1478,0 2.2928,-0.572 3.4347,-0.627 1.1354,-0.517 2.2678,-1.091 3.3972,-1.147 1.1222,-1.035 2.2414,0.121 3.3575,0.07 1.1306,0.176 2.258,0.253 3.382,0.197 1.126,0.308 2.2486,0.186 3.3678,0.131 1.1187,0.241 2.2339,-0.318 3.3457,-0.374 1.1054,-0.262 2.2073,0.405 3.3057,0.349 1.1076,0.46 2.2115,-0.472 3.3118,-0.529 1.0889,-0.416 2.1742,-0.546 3.2557,-0.602 1.0801,-0.489 2.1564,-0.206 3.2288,-0.262 1.0765,-0.151 2.1491,0.647 3.2177,0.592 1.0799,0.702 2.1557,0.609 3.2273,0.553 1.0722,0.665 2.1403,0.424 3.204,0.367 1.0625,0.478 2.1206,-0.127 3.1744,-0.186 1.0464,-0.07 2.0884,-0.08 3.1259,-0.139 1.038,-0.02 2.0716,0 3.1005,-0.06 1.0302,0.06 2.0558,0.06 3.0767,0 1.0221,0.124 2.0394,0.461 3.0519,0.396 1.0201,0.524 2.0353,-0.09 3.0455,-0.161 1.0014,-0.03 1.9978,-0.164 2.9893,-0.234 0.9896,-0.1 1.9743,-1.07 2.9539,-1.142 0.9607,-1.001 1.9166,-1.473 2.8674,-1.543 0.9419,-1.4019998 1.8789,-0.02 2.8109,-0.08 0.9577,0.05 1.91,0.538 2.857,0.475 0.9567,0.606 1.9078,0.06 2.8534,0 0.9381,0.12 1.8708,0.457 2.7978,0.396 0.9346,0.519 1.8634,-0.01 2.7865,-0.07 0.9157,0.05 1.8258,-0.778 2.73,-0.84 0.8897,-0.7169998 1.7737,-0.12 2.652,-0.178 0.8891,-0.06 1.7723,0 2.6495,-0.07 0.8792,0.05 1.7523,-0.291 2.6194,-0.347 0.8623,-0.2319998 1.7185,-0.04 2.5685,-0.09 0.8542,0.02 1.702,0 2.5436,-0.05 0.8422,0.05 1.678,0.2749998 2.5074,0.2259998 0.8343,0.326 1.6621,0.04 2.4833,-0.01 0.8181,0.09 1.6296,-0.5959998 2.4344,-0.6479998 0.7933,-0.547 1.5801,0.36 2.3603,0.314 0.7958,0.4119998 1.5848,-0.433 2.3668,-0.481 0.769,-0.386 1.5312,0 2.2866,-0.03 0.7623,0.06 1.5176,0.9369998 2.2657,0.8959998 0.7704,0.98 1.5332,0.492 2.2884,0.43 0.7611,0.525 1.5144,0.06 2.2599,-0.04 0.7329,0.111 1.4582,-0.312 2.1758,-0.431 0.6904,-0.2249998 1.3737,-0.9219998 2.0498,-1.0439998 0.6433,-0.801 1.2802,-0.122 1.9103,-0.195 0.6705,0 1.3335,-0.669 1.9888,-0.718 0.6633,-0.579 1.3187,0.697 1.9662,0.75 0.6476,0.775 1.2873,0.05 1.919,-0.06 0.6179,-0.111 1.2281,-0.325 1.8304,-0.325 -0.6122,0 -1.2325,0.414 -1.8607,0.414 -0.6284,0.413 -1.2648,-0.363 -1.909,-0.364 -0.6438,-0.362 -1.2956,0.07 -1.955,0.06 -0.6597,0.07 -1.3271,-0.16 -2.0021,-0.162 -0.6749,-0.16 -1.3573,0.406 -2.0473,0.403 -0.6906,0.409 -1.3888,0.575 -2.0943,0.572 -0.706,0.5779998 -1.4193,-0.449 -2.14,-0.453 -0.7193,-0.445 -1.4459,0.367 -2.1797,0.362 -0.735,0.37 -1.4773,0.08 -2.2267,0.08 -0.7489,0.09 -1.505,0.316 -2.268,0.31 -0.7636,0.3199998 -1.5341,-0.205 -2.3116,-0.212 -0.7764,-0.199 -1.5597,0.253 -2.3497,0.246 -0.7911,0.2589998 -1.5889,0.2969998 -2.3935,0.2899998 -0.8047,0.304 -1.6161,0 -2.4341,0 -0.8173,0.01 -1.6411,-0.2049998 -2.4715,-0.2139998 -0.8297,-0.197 -1.6659,-0.492 -2.5085,-0.501 -0.8417,-0.484 -1.6897,0.02 -2.544,0 -0.8557,0.03 -1.7176,0.304 -2.5857,0.293 -0.869,0.3149998 -1.7441,0.02 -2.6253,0 -0.8804,0.03 -1.7667,0.3369998 -2.659,0.3249998 -0.8934,0.347 -1.7927,-0.3229998 -2.6979,-0.3359998 -0.903,-0.311 -1.8118,0.112 -2.7263,0.1 -0.9159,0.124 -1.8376,0.3739998 -2.7649,0.3599998 -0.9283,0.387 -1.8623,0.163 -2.8017,0.149 -0.9387,0.175 -1.883,0.843 -2.8327,0.828 -0.9523,0.857 -1.9101,-0.719 -2.8732,-0.735 -0.9571,-0.7039998 -1.9194,-0.09 -2.8869,-0.104 -0.9699,-0.07 -1.945,-0.179 -2.9252,-0.196 -0.9798,-0.1629998 -1.9647,-0.05 -2.9545,-0.07 -0.9904,-0.03 -1.9858,0.06 -2.986,0.04 -1.0007,0.07 -2.0063,0 -3.0166,-0.03 -1.0101,0 -2.0249,-0.2029998 -3.0444,-0.2209998 -1.0186,-0.185 -2.0419,-0.422 -3.0697,-0.441 -1.0268,-0.403 -2.0582,0 -3.0939,-0.02 -1.0377,0.02 -2.0798,-0.404 -3.1263,-0.424 -1.0446,-0.384 -2.0936,-0.491 -3.1467,-0.512 -1.0528,-0.472 -2.1097,1.163 -3.1708,1.143 -1.0689,1.1829998 -2.142,-0.306 -3.2191,-0.327 -1.0702,-0.285 -2.1444,-0.08 -3.2225,-0.1 -1.0792,-0.06 -2.1623,0.136 -3.2493,0.114 -1.0879,0.158 -2.1798,0.268 -3.2753,0.246 -1.0962,0.289 -2.1961,0.183 -3.2996,0.161 -1.1031,0.205 -2.2099,-0.457 -3.3202,-0.48 -1.1069,-0.435 -2.2174,1.2769998 -3.3313,1.2529998 -1.1228,1.3 -2.2491,-0.5719998 -3.3787,-0.5959998 -1.12,-0.549 -2.2433,-0.352 -3.3697,-0.376 -1.1275,-0.328 -2.2582,-0.05 -3.392,-0.08 -1.1353,-0.03 -2.2737,-1.67 -3.4151,-1.695 -1.1326,-1.645 -2.268,1.348 -3.4063,1.322 -1.1547,1.3729998 -2.3123,-0.04 -3.4727,-0.06 -1.1528,-0.01 -2.3085,-0.315 -3.4667,-0.341 -1.1568,-0.289 -2.3161,-0.524 -3.478,-0.551 -1.1608,-0.497 -2.324,0.05 -3.4897,0.03 -1.1689,0.08 -2.3402,0.658 -3.5138,0.631 -1.1771,0.686 -2.3565,-0.04 -3.5382,-0.06 -1.1778,-0.01 -2.3578,0.481 -3.5399,0.453 -1.1852,0.508 -2.3724,0.548 -3.5617,0.52 -1.1898,0.5759998 -2.3816,-0.04 -3.5754,-0.07 -1.1903,-0.01 -2.3826,-0.233 -3.5766,-0.263 -1.1929,-0.204 -2.3876,-0.178 -3.5839,-0.207 -1.1967,-0.149 -2.395,-0.244 -3.5949,-0.274 -1.1995,-0.214 -2.4006,0.497 -3.6031,0.466 -1.2072,0.527 -2.4159,0.656 -3.6259,0.625 -1.2112,0.6859998 -2.4239,0.2809998 -3.6378,0.2489998 -1.2117,0.312 -2.4246,0.473 -3.6388,0.44 -1.2156,0.504 -2.4323,-0.116 -3.6501,-0.149 -1.214,-0.08 -2.429,0.695 -3.6449,0.661 -1.2217,0.729 -2.4444,0.851 -3.6679,0.815 -1.2252,0.884 -2.4512,0.328 -3.678,0.292 -1.2233,0.362 -2.4475,-1.236 -3.6722,-1.274 -1.2126,-1.1989998 -2.4258,0.991 -3.6396,0.953 -1.2309,1.027 -2.4623,-0.579 -3.6942,-0.618 -1.2195,-0.54 -2.4395,0.05 -3.6597,0 -1.2252,0.08 -2.4507,0.881 -3.6763,0.839 -1.2331,0.921 -2.4664,-1.146 -3.6998,-1.189 -1.2158,-1.1039998 -2.4317,0.648 -3.6477,0.605 -1.2315,0.689 -2.463,-0.366 -3.6944,-0.411 -1.2224,-0.323 -2.4447,0.556 -3.6668,0.511 -1.2306,0.6 -2.4611,0.386 -3.6912,0.339 -1.2289,0.432 -2.4576,-0.141 -3.6858,-0.189 -1.2232,-0.09 -2.446,-0.292 -3.6682,-0.341 -1.2205,-0.244 -2.4405,-0.311 -3.6599,-0.361 -1.2188,-0.261 -2.4371,-0.07 -3.6546,-0.119 -1.2199,-0.02 -2.439,-0.902 -3.6572,-0.954 -1.2091,-0.8509998 -2.4174,-0.04 -3.6247,-0.09 -1.2162,0.01 -2.4314,-0.702 -3.6456,-0.754 -1.2068,-0.649 -2.4126,-0.06 -3.6173,-0.11 -1.2113,0 -2.4216,-0.373 -3.6305,-0.426 -1.2055,-0.32 -2.4097,-0.115 -3.6125,-0.168 -1.2055,-0.06 -2.4096,0.318 -3.6123,0.265 -1.2075,0.371 -2.4134,-0.04 -3.6178,-0.09 -1.2006,0.01 -2.3996,-0.125 -3.5968,-0.179 -1.1964,-0.07 -2.391,-0.371 -3.5838,-0.424 -1.19,-0.317 -2.3782,0.4 -3.5644,0.346 -1.195,0.454 -2.3879,-0.262 -3.5789,-0.316 -1.1836,-0.208 -2.3652,-0.183 -3.5447,-0.237 -1.1803,-0.129 -2.3585,0.202 -3.5344,0.148 -1.1803,0.255 -2.3584,-0.09 -3.5342,-0.143 -1.1725,-0.03 -2.3427,-0.303 -3.5104,-0.357 -1.1652,-0.249 -2.328,0.473 -3.4882,0.419 -1.1693,0.526 -2.336,-0.109 -3.5001,-0.164 -1.1574,-0.06 -2.3123,0.111 -3.4643,0.06 -1.1547,0.166 -2.3067,0.143 -3.4557,0.09 -1.1497,0.197 -2.2964,-0.162 -3.4402,-0.218 -1.1401,-0.106 -2.2772,0.11 -3.4112,0.05 -1.1375,0.165 -2.2718,-0.48 -3.4029,-0.537 -1.1236,-0.424 -2.244,1.135 -3.3612,1.079 -1.1382,1.19 -2.2731,-0.694 -3.4044,-0.753 -1.108,-0.636 -2.2126,0.247 -3.3137,0.188 -1.1134,0.304 -2.2232,-0.372 -3.3294,-0.431 -1.0977,-0.313 -2.1919,0.02 -3.2823,-0.04 -1.0956,0.08 -2.1875,-0.678 -3.2756,-0.739 -1.0779,-0.617 -2.1521,-0.131 -3.2224,-0.191 -1.0775,-0.07 -2.1512,0.198 -3.2207,0.138 -1.0744,0.258 -2.1447,-0.181 -3.2109,-0.242 -1.0609,-0.12 -2.1176,-0.123 -3.1701,-0.183 -1.0532,-0.06 -2.1022,-0.544 -3.1468,-0.604 -1.0383,-0.484 -2.0723,0.07 -3.1019,0 -1.0381,0.126 -2.0718,-0.461 -3.1009,-0.52 -1.0215,-0.402 -2.0386,-0.195 -3.051,-0.252 -1.016,-0.137 -2.0273,-1.517 -3.0339,-1.572 -0.9892,-1.459 -1.9737,0.3 -2.9536,0.25 -1.0034,0.355 -2.0019,-0.387 -2.9953,-0.434 -0.9856,-0.333 -1.9662,-0.688 -2.9417,-0.731 -0.9733,-0.638 -1.9415,0.376 -2.9046,0.337 -0.9737,0.422 -1.9421,-0.252 -2.9053,-0.287 -0.9575,-0.211 -1.9097,0.1 -2.8566,0.07 -0.9497,0.132 -1.894,-1.63400003 -2.8327,-1.66200003 -0.9298,-1.601 -1.8543,0.48500003 -2.7731,0.46600003 -0.9311,0.516 -1.8565,0.189 -2.7762,0.175 -0.9172,0.211 -1.8287,-0.29400003 -2.7344,-0.30200003 -0.9049,-0.279 -1.8039,0.84100003 -2.697,0.83800003 -0.893,0.853 -1.78,0.123 -2.6609,0.12 -0.8802,0.127 -1.7544,-0.301 -2.6224,-0.304 -0.8678,-0.298 -1.7296,0.3 -2.585,0.299 -0.8556,0.303 -1.7049,0.08 -2.5479,0.08 -0.8429,0.08 -1.6795,0 -2.5095,0 -0.8301,0 -1.6537,0.05 -2.4707,0.05 -0.8171,0.06 -1.6276,0 -2.4315,0 -0.8038,0 -1.6009,-0.402 -2.3913,-0.408 -0.79,-0.398 -1.5732,0.249 -2.3495,0.247 -0.7767,0.257 -1.5466,-0.29 -2.3095,-0.292 -0.763,-0.288 -1.519,-0.70400003 -2.2679,-0.70100003 -0.7553,-0.7 -1.5034,0.24200003 -2.2441,0.26400003 -0.7338,0.248 -1.4604,0.43 -2.1797,0.46 -0.7146,0.41 -1.422,0.64 -2.122,0.662 -0.7059,0.607 -1.4044,0.465 -2.0953,0.453 -0.7062,0.428 -1.4045,0.01 -2.0948,-0.05 -0.6784,0.01 -1.3492,-0.295 -2.0121,-0.39 -0.6444,-0.235 -1.2813,1.191 -1.9108,1.121 -0.7254,1.285 -1.4409,-0.59 -2.1463,-1.01 -0.5408,-0.322 -1.0756,-0.812 -1.6044,-0.812 v 2.817 z"
         id="use25"
         inkscape:linked-fill="path21" />
    </pattern>
    <linearGradient
       id="linearGradient15"
       inkscape:swatch="gradient">
      <stop
         style="stop-color:#ee2f3f;stop-opacity:1;"
         offset="0"
         id="stop15" />
      <stop
         style="stop-color:#dc1818;stop-opacity:1;"
         offset="1"
         id="stop16" />
    </linearGradient>
    <inkscape:path-effect
       effect="mirror_symmetry"
       start_point="68.019786,62.270113"
       end_point="68.099724,53.937454"
       center_point="68.059755,58.103784"
       id="path-effect7"
       is_visible="true"
       lpeversion="1.2"
       lpesatellites=""
       mode="free"
       discard_orig_path="false"
       fuse_paths="false"
       oposite_fuse="true"
       split_items="false"
       split_open="false"
       link_styles="true" />
    <inkscape:path-effect
       effect="bspline"
       id="path-effect5"
       is_visible="true"
       lpeversion="1.3"
       weight="33.333333"
       steps="2"
       helper_size="0"
       apply_no_weight="true"
       apply_with_weight="true"
       only_selected="false"
       uniform="false" />
    <inkscape:path-effect
       effect="bspline"
       id="path-effect19"
       is_visible="true"
       lpeversion="1.3"
       weight="33.333333"
       steps="2"
       helper_size="0"
       apply_no_weight="true"
       apply_with_weight="true"
       only_selected="false"
       uniform="false" />
    <clipPath
       clipPathUnits="userSpaceOnUse"
       id="clipPath52">
      <path
         id="path52"
         style="stroke-width:0.1;stroke-linecap:square;paint-order:markers fill stroke;stop-color:#000000"
         d="m -880.82767,-187.29769 h 1640.84 v 73.28155 h -1640.84 z" />
    </clipPath>
    <inkscape:path-effect
       effect="bspline"
       id="path-effect83-4"
       is_visible="true"
       lpeversion="1.3"
       weight="33.333333"
       steps="2"
       helper_size="0"
       apply_no_weight="true"
       apply_with_weight="true"
       only_selected="false"
       uniform="false" />
  </defs>
  <g
     inkscape:groupmode="layer"
     id="layer31"
     inkscape:label="kebab_wiel"
     style="display:inline">
    <g
       inkscape:groupmode="layer"
       id="layer17"
       inkscape:label="kebab"
       transform="translate(16.933333,7.1437497)"
       style="display:inline">
      <rect
         style="fill:#5c3519;fill-opacity:1;stroke:#422a12;stroke-width:1.065;stroke-linecap:square;stroke-linejoin:miter;stroke-dasharray:none;stroke-dashoffset:16.59;stroke-opacity:1;paint-order:stroke fill markers"
         id="rect77"
         width="6.8130207"
         height="7.9375"
         x="62.772396"
         y="60.12656" />
      <rect
         style="fill:url(#pattern79);fill-opacity:1;stroke:none;stroke-width:1.365;stroke-linecap:square;stroke-linejoin:miter;stroke-dasharray:none;stroke-dashoffset:16.59;stroke-opacity:1;paint-order:stroke fill markers"
         id="rect77-6"
         width="6.8130207"
         height="7.9375"
         x="62.760361"
         y="60.147602" />
    </g>
    <g
       inkscape:groupmode="layer"
       id="g316"
       inkscape:label="kebab"
       transform="matrix(0.49612133,0.6125238,-0.56641926,0.53650386,52.849917,-17.376663)"
       style="display:inline">
      <rect
         style="fill:#5c3519;fill-opacity:1;stroke:#422a12;stroke-width:1.065;stroke-linecap:square;stroke-linejoin:miter;stroke-dasharray:none;stroke-dashoffset:16.59;stroke-opacity:1;paint-order:stroke fill markers"
         id="rect315"
         width="6.8130207"
         height="7.9375"
         x="62.772396"
         y="60.12656" />
      <rect
         style="fill:url(#pattern79);fill-opacity:1;stroke:none;stroke-width:1.365;stroke-linecap:square;stroke-linejoin:miter;stroke-dasharray:none;stroke-dashoffset:16.59;stroke-opacity:1;paint-order:stroke fill markers"
         id="rect316"
         width="6.8130207"
         height="7.9375"
         x="62.760361"
         y="60.147602" />
    </g>
    <g
       inkscape:groupmode="layer"
       id="g318"
       inkscape:label="kebab"
       transform="matrix(0.58596488,-0.34413668,0.36551071,0.55169931,11.976515,33.583041)"
       style="display:inline">
      <rect
         style="fill:#5c3519;fill-opacity:1;stroke:#422a12;stroke-width:1.065;stroke-linecap:square;stroke-linejoin:miter;stroke-dasharray:none;stroke-dashoffset:16.59;stroke-opacity:1;paint-order:stroke fill markers"
         id="rect317"
         width="6.8130207"
         height="7.9375"
         x="62.772396"
         y="60.12656" />
      <rect
         style="fill:url(#pattern79);fill-opacity:1;stroke:none;stroke-width:1.365;stroke-linecap:square;stroke-linejoin:miter;stroke-dasharray:none;stroke-dashoffset:16.59;stroke-opacity:1;paint-order:stroke fill markers"
         id="rect318"
         width="6.8130207"
         height="7.9375"
         x="62.760361"
         y="60.147602" />
    </g>
    <g
       inkscape:groupmode="layer"
       id="g320"
       inkscape:label="kebab"
       transform="rotate(-31.954917,127.95435,92.781063)"
       style="display:inline">
      <rect
         style="fill:#5c3519;fill-opacity:1;stroke:#422a12;stroke-width:1.065;stroke-linecap:square;stroke-linejoin:miter;stroke-dasharray:none;stroke-dashoffset:16.59;stroke-opacity:1;paint-order:stroke fill markers"
         id="rect319"
         width="6.8130207"
         height="7.9375"
         x="62.772396"
         y="60.12656" />
      <rect
         style="fill:url(#pattern79);fill-opacity:1;stroke:none;stroke-width:1.365;stroke-linecap:square;stroke-linejoin:miter;stroke-dasharray:none;stroke-dashoffset:16.59;stroke-opacity:1;paint-order:stroke fill markers"
         id="rect320"
         width="6.8130207"
         height="7.9375"
         x="62.760361"
         y="60.147602" />
    </g>
    <g
       inkscape:groupmode="layer"
       id="g322"
       inkscape:label="kebab"
       transform="matrix(0.62952523,0.24793898,-0.25544704,0.61102231,81.504114,-7.9469934)"
       style="display:inline">
      <rect
         style="fill:#5c3519;fill-opacity:1;stroke:#422a12;stroke-width:1.065;stroke-linecap:square;stroke-linejoin:miter;stroke-dasharray:none;stroke-dashoffset:16.59;stroke-opacity:1;paint-order:stroke fill markers"
         id="rect321"
         width="6.8130207"
         height="7.9375"
         x="62.772396"
         y="60.12656" />
      <rect
         style="fill:url(#pattern79);fill-opacity:1;stroke:none;stroke-width:1.365;stroke-linecap:square;stroke-linejoin:miter;stroke-dasharray:none;stroke-dashoffset:16.59;stroke-opacity:1;paint-order:stroke fill markers"
         id="rect322"
         width="6.8130207"
         height="7.9375"
         x="62.760361"
         y="60.147602" />
    </g>
    <g
       inkscape:groupmode="layer"
       id="g324"
       inkscape:label="kebab"
       transform="rotate(22.086197,145.80983,23.222083)"
       style="display:inline">
      <rect
         style="fill:#5c3519;fill-opacity:1;stroke:#422a12;stroke-width:1.065;stroke-linecap:square;stroke-linejoin:miter;stroke-dasharray:none;stroke-dashoffset:16.59;stroke-opacity:1;paint-order:stroke fill markers"
         id="rect323"
         width="6.8130207"
         height="7.9375"
         x="62.772396"
         y="60.12656" />
      <rect
         style="fill:url(#pattern79);fill-opacity:1;stroke:none;stroke-width:1.365;stroke-linecap:square;stroke-linejoin:miter;stroke-dasharray:none;stroke-dashoffset:16.59;stroke-opacity:1;paint-order:stroke fill markers"
         id="rect324"
         width="6.8130207"
         height="7.9375"
         x="62.760361"
         y="60.147602" />
    </g>
    <g
       inkscape:groupmode="layer"
       id="g326"
       inkscape:label="kebab"
       transform="rotate(22.086197,51.329429,-4.78171)"
       style="display:inline">
      <rect
         style="fill:#5c3519;fill-opacity:1;stroke:#422a12;stroke-width:1.065;stroke-linecap:square;stroke-linejoin:miter;stroke-dasharray:none;stroke-dashoffset:16.59;stroke-opacity:1;paint-order:stroke fill markers"
         id="rect325"
         width="6.8130207"
         height="7.9375"
         x="62.772396"
         y="60.12656" />
      <rect
         style="fill:url(#pattern79);fill-opacity:1;stroke:none;stroke-width:1.365;stroke-linecap:square;stroke-linejoin:miter;stroke-dasharray:none;stroke-dashoffset:16.59;stroke-opacity:1;paint-order:stroke fill markers"
         id="rect326"
         width="6.8130207"
         height="7.9375"
         x="62.760361"
         y="60.147602" />
    </g>
    <g
       inkscape:groupmode="layer"
       id="g328"
       inkscape:label="kebab"
       transform="rotate(22.086197,51.748139,137.98302)"
       style="display:inline">
      <rect
         style="fill:#5c3519;fill-opacity:1;stroke:#422a12;stroke-width:1.065;stroke-linecap:square;stroke-linejoin:miter;stroke-dasharray:none;stroke-dashoffset:16.59;stroke-opacity:1;paint-order:stroke fill markers"
         id="rect327"
         width="6.8130207"
         height="7.9375"
         x="62.772396"
         y="60.12656" />
      <rect
         style="fill:url(#pattern79);fill-opacity:1;stroke:none;stroke-width:1.365;stroke-linecap:square;stroke-linejoin:miter;stroke-dasharray:none;stroke-dashoffset:16.59;stroke-opacity:1;paint-order:stroke fill markers"
         id="rect328"
         width="6.8130207"
         height="7.9375"
         x="62.760361"
         y="60.147602" />
    </g>
    <g
       inkscape:groupmode="layer"
       id="g330"
       inkscape:label="kebab"
       transform="rotate(22.086197,46.785028,54.862214)"
       style="display:inline">
      <rect
         style="fill:#5c3519;fill-opacity:1;stroke:#422a12;stroke-width:1.065;stroke-linecap:square;stroke-linejoin:miter;stroke-dasharray:none;stroke-dashoffset:16.59;stroke-opacity:1;paint-order:stroke fill markers"
         id="rect329"
         width="6.8130207"
         height="7.9375"
         x="62.772396"
         y="60.12656" />
      <rect
         style="fill:url(#pattern79);fill-opacity:1;stroke:none;stroke-width:1.365;stroke-linecap:square;stroke-linejoin:miter;stroke-dasharray:none;stroke-dashoffset:16.59;stroke-opacity:1;paint-order:stroke fill markers"
         id="rect330"
         width="6.8130207"
         height="7.9375"
         x="62.760361"
         y="60.147602" />
    </g>
    <g
       inkscape:groupmode="layer"
       id="g332"
       inkscape:label="kebab"
       transform="rotate(-23.157183,26.347098,68.044988)"
       style="display:inline">
      <rect
         style="fill:#5c3519;fill-opacity:1;stroke:#422a12;stroke-width:1.065;stroke-linecap:square;stroke-linejoin:miter;stroke-dasharray:none;stroke-dashoffset:16.59;stroke-opacity:1;paint-order:stroke fill markers"
         id="rect331"
         width="6.8130207"
         height="7.9375"
         x="62.772396"
         y="60.12656" />
      <rect
         style="fill:url(#pattern79);fill-opacity:1;stroke:none;stroke-width:1.365;stroke-linecap:square;stroke-linejoin:miter;stroke-dasharray:none;stroke-dashoffset:16.59;stroke-opacity:1;paint-order:stroke fill markers"
         id="rect332"
         width="6.8130207"
         height="7.9375"
         x="62.760361"
         y="60.147602" />
    </g>
    <g
       inkscape:groupmode="layer"
       id="g334"
       inkscape:label="kebab copy"
       transform="rotate(-24.269883,2.1586663,129.82665)"
       style="display:inline">
      <rect
         style="fill:#5c3519;fill-opacity:1;stroke:#422a12;stroke-width:1.065;stroke-linecap:square;stroke-linejoin:miter;stroke-dasharray:none;stroke-dashoffset:16.59;stroke-opacity:1;paint-order:stroke fill markers"
         id="rect333"
         width="6.8130207"
         height="7.9375"
         x="62.772396"
         y="60.12656" />
      <rect
         style="fill:url(#pattern79);fill-opacity:1;stroke:none;stroke-width:1.365;stroke-linecap:square;stroke-linejoin:miter;stroke-dasharray:none;stroke-dashoffset:16.59;stroke-opacity:1;paint-order:stroke fill markers"
         id="rect334"
         width="6.8130207"
         height="7.9375"
         x="62.760361"
         y="60.147602" />
    </g>
    <g
       inkscape:groupmode="layer"
       id="g336"
       inkscape:label="kebab copy"
       transform="matrix(0.41851738,0.4554577,-0.56933668,0.39848527,103.47564,40.853468)"
       style="display:inline">
      <rect
         style="fill:#5c3519;fill-opacity:1;stroke:#422a12;stroke-width:1.065;stroke-linecap:square;stroke-linejoin:miter;stroke-dasharray:none;stroke-dashoffset:16.59;stroke-opacity:1;paint-order:stroke fill markers"
         id="rect335"
         width="6.8130207"
         height="7.9375"
         x="62.772396"
         y="60.12656" />
      <rect
         style="fill:url(#pattern79);fill-opacity:1;stroke:none;stroke-width:1.365;stroke-linecap:square;stroke-linejoin:miter;stroke-dasharray:none;stroke-dashoffset:16.59;stroke-opacity:1;paint-order:stroke fill markers"
         id="rect336"
         width="6.8130207"
         height="7.9375"
         x="62.760361"
         y="60.147602" />
    </g>
    <g
       inkscape:groupmode="layer"
       id="g338"
       inkscape:label="kebab copy"
       transform="matrix(0.61639954,-0.05147932,-0.03415408,0.69409528,2.1023233,45.532915)"
       style="display:inline">
      <rect
         style="fill:#5c3519;fill-opacity:1;stroke:#422a12;stroke-width:1.065;stroke-linecap:square;stroke-linejoin:miter;stroke-dasharray:none;stroke-dashoffset:16.59;stroke-opacity:1;paint-order:stroke fill markers"
         id="rect337"
         width="6.8130207"
         height="7.9375"
         x="62.772396"
         y="60.12656" />
      <rect
         style="fill:url(#pattern79);fill-opacity:1;stroke:none;stroke-width:1.365;stroke-linecap:square;stroke-linejoin:miter;stroke-dasharray:none;stroke-dashoffset:16.59;stroke-opacity:1;paint-order:stroke fill markers"
         id="rect338"
         width="6.8130207"
         height="7.9375"
         x="62.760361"
         y="60.147602" />
    </g>
    <g
       inkscape:groupmode="layer"
       id="g340"
       inkscape:label="kebab copy"
       transform="matrix(0.61639954,-0.05147932,-0.03415408,0.69409528,39.805446,-15.585832)"
       style="display:inline">
      <rect
         style="fill:#5c3519;fill-opacity:1;stroke:#422a12;stroke-width:1.065;stroke-linecap:square;stroke-linejoin:miter;stroke-dasharray:none;stroke-dashoffset:16.59;stroke-opacity:1;paint-order:stroke fill markers"
         id="rect339"
         width="6.8130207"
         height="7.9375"
         x="62.772396"
         y="60.12656" />
      <rect
         style="fill:url(#pattern79);fill-opacity:1;stroke:none;stroke-width:1.365;stroke-linecap:square;stroke-linejoin:miter;stroke-dasharray:none;stroke-dashoffset:16.59;stroke-opacity:1;paint-order:stroke fill markers"
         id="rect340"
         width="6.8130207"
         height="7.9375"
         x="62.760361"
         y="60.147602" />
    </g>
    <g
       inkscape:groupmode="layer"
       id="g342"
       inkscape:label="kebab copy"
       transform="matrix(0.61639954,-0.05147932,-0.03415408,0.69409528,56.341904,9.5495834)"
       style="display:inline">
      <rect
         style="fill:#5c3519;fill-opacity:1;stroke:#422a12;stroke-width:1.065;stroke-linecap:square;stroke-linejoin:miter;stroke-dasharray:none;stroke-dashoffset:16.59;stroke-opacity:1;paint-order:stroke fill markers"
         id="rect341"
         width="6.8130207"
         height="7.9375"
         x="62.772396"
         y="60.12656" />
      <rect
         style="fill:url(#pattern79);fill-opacity:1;stroke:none;stroke-width:1.365;stroke-linecap:square;stroke-linejoin:miter;stroke-dasharray:none;stroke-dashoffset:16.59;stroke-opacity:1;paint-order:stroke fill markers"
         id="rect342"
         width="6.8130207"
         height="7.9375"
         x="62.760361"
         y="60.147602" />
    </g>
  </g>
</svg>
